<?xml version="1.0" encoding="UTF-8" standalone="no"?>
<svg
   xmlns:dc="http://purl.org/dc/elements/1.1/"
   xmlns:cc="http://creativecommons.org/ns#"
   xmlns:rdf="http://www.w3.org/1999/02/22-rdf-syntax-ns#"
   xmlns:svg="http://www.w3.org/2000/svg"
   xmlns="http://www.w3.org/2000/svg"
   xmlns:sodipodi="http://sodipodi.sourceforge.net/DTD/sodipodi-0.dtd"
   xmlns:inkscape="http://www.inkscape.org/namespaces/inkscape"
   width="24in"
   height="12in"
   version="1.1"
   id="svg2"
   inkscape:version="0.91 r13725"
   sodipodi:docname="Lasercuts Ian-Bobby.svg">
  <metadata
     id="metadata294">
    <rdf:RDF>
      <cc:Work
         rdf:about="">
        <dc:format>image/svg+xml</dc:format>
        <dc:type
           rdf:resource="http://purl.org/dc/dcmitype/StillImage" />
        <dc:title></dc:title>
      </cc:Work>
    </rdf:RDF>
  </metadata>
  <defs
     id="defs292" />
  <sodipodi:namedview
     pagecolor="#ffffff"
     bordercolor="#666666"
     borderopacity="1"
     objecttolerance="10"
     gridtolerance="10"
     guidetolerance="10"
     inkscape:pageopacity="0"
     inkscape:pageshadow="2"
     inkscape:window-width="1280"
     inkscape:window-height="962"
     id="namedview290"
     showgrid="false"
     inkscape:document-units="in"
     units="in"
     inkscape:zoom="0.205396"
     inkscape:cx="889.88153"
     inkscape:cy="1695.901"
     inkscape:window-x="-8"
     inkscape:window-y="-8"
     inkscape:window-maximized="1"
     inkscape:current-layer="g4491" />
  <path
     d="m 1636.285,33.80283 7.0132,0.2788 q 3.77,-0.4 5.33,1.4 l 7.02,4.21 3.37,5.05 q 2.07,1.57 2.24,5.06 l 1.12,7.29 -1.12,5.61 -0.56,1.13 q 0.28,2.52 -1.68,2.8 l -4.21,5.89 -6.18,3.37 q -0.78,1.46 -3.36,1.12 l -4.49,0.57 -2.81,0.56 -6.73,-2.25 -4.49,-2.8 -4.77,-4.21 -2.25,-5.62 q -1.59,-1.49 -1.12,-5.05 l 0,-7.85 3.65,-8.14 4.77,-4.21 3.93,-2.24 5.33,-1.97 z"
     id="path6"
     inkscape:connector-curvature="0"
     style="opacity:1;fill:none;stroke:#000000;stroke-width:0.354" />
  <path
     d="m 1638.5298,48.39433 q 3.5084,-0.9827 4.4884,0.5573 l 2.53,1.41 q 1.94,1.98 2.24,5.61 l -2.52,5.33 -2.25,1.12 q -0.98,1.55 -4.49,0.56 l -4.21,-2.52 -1.12,-2.25 -0.56,-3.92 4.21,-5.34 1.68,-0.56 z"
     id="path8"
     inkscape:connector-curvature="0"
     style="opacity:1;fill:none;stroke:#000000;stroke-width:0.354" />
  <path
     d="m 1241.193,77.57723 7.8552,1.1244 q 2.11,-0.42 2.53,0.84 l 3.93,2.24 3.36,2.25 q 0.42,1.82 3.09,1.4 l 6.73,0 26.38,0 54.44,0 13.47,0 q 8.46,-0.33 12.06,4.21 l 2.53,3.65 1.12,4.49 0.28,4.21 -1.96,5.33 -2.81,3.93 -3.37,1.68 q -3.85,2.6 -11.22,1.69 l -20.2,0 -79.98,0.28 -1.96,2.52 -4.77,2.53 q -1.1,1.7 -4.21,1.4 l -8.42,0.56 -5.33,-1.96 q -2.88,0.07 -3.65,-1.97 l -5.89,-5.33 -2.24,-5.05 q -1.59,-1.5 -1.13,-5.05 l 0,-7.86 2.81,-5.61 1.68,-2.81 3.65,-3.64 q 1.57,-2.37 5.05,-2.81 l 6.17,-2.24 z"
     id="path10"
     inkscape:connector-curvature="0"
     style="opacity:1;fill:none;stroke:#000000;stroke-width:0.354" />
  <path
     d="m 1241.7542,92.72993 q 5.854,-0.8083 7.574,2.5217 2.06,1.59 1.69,5.62 l -0.57,1.12 -1.96,3.65 q -1.61,2.31 -6.17,1.68 -3.23,-0.7 -4.77,-3.09 -1.78,-1.87 -1.13,-6.17 0.78,-3.44 3.65,-4.77 l 1.69,-0.56 z"
     id="path12"
     inkscape:connector-curvature="0"
     style="opacity:1;fill:none;stroke:#000000;stroke-width:0.354" />
  <path
     d="m 1636.285,93.29113 7.0132,0.2805 q 3.77,-0.4 5.33,1.4 l 7.02,4.21 3.37,5.05 q 2.07,1.57 2.24,5.05 l 1.12,7.3 -1.12,5.61 -0.56,1.12 q 0.28,2.53 -1.68,2.81 l -4.21,5.89 -6.18,3.37 q -0.78,1.46 -3.36,1.12 l -4.49,0.56 -2.81,0.57 -6.73,-2.25 -4.49,-2.81 -4.77,-4.2 -2.25,-5.62 q -1.59,-1.49 -1.12,-5.05 l 0,-7.85 3.65,-8.14 4.77,-4.21 3.93,-2.25 5.33,-1.96 z"
     id="path14"
     inkscape:connector-curvature="0"
     style="opacity:1;fill:none;stroke:#000000;stroke-width:0.354" />
  <path
     d="m 1364.098,96.09713 3.0902,1.4045 0.56,3.93 -0.84,1.4 -4.49,0.56 q -2.01,-1.07 -1.97,-4.21 l 1.97,-2.52 1.68,-0.56 z"
     id="path16"
     inkscape:connector-curvature="0"
     style="opacity:1;fill:none;stroke:#000000;stroke-width:0.354" />
  <path
     d="m 1638.5298,107.88253 q 3.5084,-0.9809 4.4884,0.5591 l 2.53,1.41 q 1.94,1.98 2.24,5.61 l -2.52,5.33 -2.25,1.12 q -0.98,1.54 -4.49,0.56 l -4.21,-2.52 -1.12,-2.25 -0.56,-3.93 4.21,-5.33 1.68,-0.56 z"
     id="path18"
     inkscape:connector-curvature="0"
     style="opacity:1;fill:none;stroke:#000000;stroke-width:0.354" />
  <path
     d="m 1636.285,152.77943 7.0132,0.2822 q 3.77,-0.41 5.33,1.4 l 7.02,4.21 3.37,5.05 q 2.07,1.57 2.24,5.05 l 1.12,7.3 -1.12,5.61 -0.56,1.12 q 0.28,2.53 -1.68,2.81 l -4.21,5.89 -6.18,3.37 q -0.78,1.46 -3.36,1.12 l -4.49,0.56 -2.81,0.56 -6.73,-2.24 -4.49,-2.81 -4.77,-4.21 -2.25,-5.61 q -1.59,-1.5 -1.12,-5.05 l 0,-7.86 3.65,-8.13 4.77,-4.21 3.93,-2.25 5.33,-1.96 z"
     id="path20"
     inkscape:connector-curvature="0"
     style="opacity:1;fill:none;stroke:#000000;stroke-width:0.354" />
  <path
     d="m 1240.6318,159.51393 5.0464,0.5577 3.09,0.28 3.65,1.41 6.45,3.64 0.84,1.41 78.01,0 23.01,0 5.61,0.56 q 2.98,-0.45 3.93,1.12 l 4.77,3.09 q 4.39,3.75 3.93,12.34 -1.23,6.63 -5.89,9.83 l -3.37,1.68 -2.24,0.56 -8.98,0.56 -20.21,0 -78.85,0.28 -1.4,1.97 -6.17,3.36 q -0.96,1.58 -3.93,1.13 l -7.3,0.56 -5.89,-1.97 q -3.16,-0.49 -4.49,-2.8 l -5.05,-4.49 -2.24,-5.61 q -1.5,-1.31 -1.13,-4.49 l 0,-7.86 4.21,-8.7 7.86,-6.17 6.73,-2.25 z"
     id="path22"
     inkscape:connector-curvature="0"
     style="opacity:1;fill:none;stroke:#000000;stroke-width:0.354" />
  <path
     d="m 1638.5298,167.37083 q 3.5084,-0.9792 4.4884,0.5608 l 2.53,1.4 q 1.94,1.99 2.24,5.62 l -2.52,5.33 -2.25,1.12 q -0.98,1.54 -4.49,0.56 l -4.21,-2.52 -1.12,-2.25 -0.56,-3.93 4.21,-5.33 1.68,-0.56 z"
     id="path24"
     inkscape:connector-curvature="0"
     style="opacity:1;fill:none;stroke:#000000;stroke-width:0.354" />
  <path
     d="m 1242.8766,174.10533 1.6816,0.5563 2.25,0.57 3.08,2.52 q 1.45,1.65 1.13,5.05 l -0.57,1.12 -1.96,3.65 q -2.27,1.66 -6.17,1.69 -3.23,-0.71 -4.77,-3.09 -1.87,-2.06 -1.13,-6.73 l 1.41,-2.53 5.05,-2.81 z"
     id="path26"
     inkscape:connector-curvature="0"
     style="opacity:1;fill:none;stroke:#000000;stroke-width:0.354" />
  <path
     d="m 1363.5368,178.03383 q 3.4514,-0.3722 4.2114,1.9678 l 0.56,1.68 -2.53,3.65 q -4.07,0.7 -4.77,-1.97 l -0.56,-2.24 1.97,-2.53 1.12,-0.56 z"
     id="path28"
     inkscape:connector-curvature="0"
     style="opacity:1;fill:none;stroke:#000000;stroke-width:0.354" />
  <path
     d="m 1636.285,212.26763 7.0132,0.284 q 3.77,-0.41 5.33,1.4 l 7.02,4.21 3.37,5.05 q 2.07,1.57 2.24,5.05 l 1.12,7.3 -1.12,5.61 -0.56,1.12 q 0.28,2.53 -1.68,2.81 l -4.21,5.89 -6.18,3.37 q -0.78,1.46 -3.36,1.12 l -4.49,0.56 -2.81,0.56 -6.73,-2.24 -4.49,-2.81 -4.77,-4.21 -2.25,-5.61 q -1.59,-1.5 -1.12,-5.05 l 0,-7.86 3.65,-8.14 4.77,-4.2 3.93,-2.25 5.33,-1.96 z"
     id="path30"
     inkscape:connector-curvature="0"
     style="opacity:1;fill:none;stroke:#000000;stroke-width:0.354" />
  <path
     d="m 1638.5298,226.85913 q 3.5084,-0.9775 4.4884,0.5625 l 2.53,1.4 q 1.94,1.99 2.24,5.61 l -2.52,5.34 -2.25,1.12 q -0.98,1.54 -4.49,0.56 l -4.21,-2.53 -1.12,-2.24 -0.56,-3.93 4.21,-5.33 1.68,-0.56 z"
     id="path32"
     inkscape:connector-curvature="0"
     style="opacity:1;fill:none;stroke:#000000;stroke-width:0.354" />
  <path
     d="m 1240.6318,241.45063 6.7364,0.561 q 3.49,-0.4 4.77,1.4 l 7.29,4.49 0.28,0.84 219.44,0 55,0 16.83,0 6.74,1.13 4.77,3.08 3.36,5.62 1.13,5.61 -1.13,3.37 q 0.36,2.87 -1.4,3.64 l -3.93,4.49 -3.36,1.69 -2.81,0.56 -7.3,0.56 -14.03,0 -55.56,0 -163.31,0 -40.4,0 -10.11,0 q -3.78,-0.98 -4.77,0.84 l -0.28,0.84 -6.17,3.37 q -1.95,1.98 -6.17,1.68 l -5.62,0.56 -5.33,-1.96 q -3.6,-0.61 -5.33,-3.09 l -4.77,-4.21 -2.24,-5.61 q -1.5,-1.31 -1.13,-4.49 l 0,-7.85 2.81,-6.18 2.52,-3.65 3.65,-3.08 q 0.98,-1.83 3.65,-1.97 l 6.17,-2.24 z"
     id="path34"
     inkscape:connector-curvature="0"
     style="opacity:1;fill:none;stroke:#000000;stroke-width:0.354" />
  <path
     d="m 1242.8766,256.04206 q 3.7916,0.13957 5.8916,1.95957 2.25,2.25 2.25,6.74 -0.71,3.23 -3.09,4.77 l -2.81,1.12 -2.24,0.56 -5.33,-3.08 q -1.87,-2.06 -1.13,-6.74 l 3.09,-4.21 3.37,-1.12 z"
     id="path36"
     inkscape:connector-curvature="0"
     style="opacity:1;fill:none;stroke:#000000;stroke-width:0.354" />
  <path
     d="m 1550.981,259.97053 q 2.6672,-0.4189 3.6472,0.8411 1.46,0.79 1.12,3.37 l -2.52,3.08 q -3.28,0.47 -4.21,-1.4 l -0.56,-3.37 1.4,-1.96 1.12,-0.56 z"
     id="path38"
     inkscape:connector-curvature="0"
     style="opacity:1;fill:none;stroke:#000000;stroke-width:0.354" />
  <path
     d="m 1636.285,271.75595 7.0132,0.27568 q 3.77,-0.4 5.33,1.41 l 7.02,4.21 3.37,5.05 q 2.07,1.57 2.24,5.05 l 1.12,7.29 -1.12,5.62 -0.56,1.12 q 0.28,2.52 -1.68,2.81 l -4.21,5.89 -6.18,3.37 q -0.78,1.45 -3.36,1.12 l -4.49,0.56 -2.81,0.56 -6.73,-2.24 -4.49,-2.81 -4.77,-4.21 -2.25,-5.61 q -1.59,-1.5 -1.12,-5.05 l 0,-7.86 3.65,-8.14 4.77,-4.21 3.93,-2.24 5.33,-1.97 z"
     id="path40"
     inkscape:connector-curvature="0"
     style="opacity:1;fill:none;stroke:#000000;stroke-width:0.354" />
  <path
     d="m 1638.5298,286.34741 q 3.5084,-0.98578 4.4884,0.56422 l 2.53,1.4 q 1.94,1.99 2.24,5.61 l -2.52,5.33 -2.25,1.13 q -0.98,1.54 -4.49,0.56 l -4.21,-2.53 -1.12,-2.24 -0.56,-3.93 4.21,-5.33 1.68,-0.56 z"
     id="path42"
     inkscape:connector-curvature="0"
     style="opacity:1;fill:none;stroke:#000000;stroke-width:0.354" />
  <path
     d="m 1240.0706,323.38728 7.8576,0.56435 q 3.18,-0.38 4.49,1.12 l 7.01,4.77 0.28,0.84 220.56,0 55,0 13.47,0 q 10.28,-0.74 14.31,4.77 l 1.96,3.09 0.84,1.96 1.13,5.61 -1.13,3.93 q -1.33,4.56 -4.77,7.02 l -2.52,1.4 q -1.61,1.76 -5.33,1.4 l -5.61,0.57 -10.11,0 -39.84,0 -158.26,0 -59.49,0 -15.15,0 -3.37,0 q -2.39,-0.43 -2.81,1.12 l -3.08,1.96 -3.09,1.97 -2.81,1.12 -8.42,1.12 -6.17,-2.24 q -6.36,-2.34 -9.82,-7.58 l -2.53,-5.89 q -1.26,-0.98 -0.84,-3.65 l 0,-8.42 2.81,-5.61 q 0.91,-3.86 4.21,-5.33 l 5.05,-3.37 6.17,-2.24 z"
     id="path52"
     inkscape:connector-curvature="0"
     style="opacity:1;fill:none;stroke:#000000;stroke-width:0.354" />
  <path
     d="m 1636.285,331.24422 7.0132,0.27741 q 3.77,-0.4 5.33,1.41 l 7.02,4.21 3.37,5.05 q 2.07,1.57 2.24,5.05 l 1.12,7.29 -1.12,5.61 -0.56,1.13 q 0.28,2.52 -1.68,2.8 l -4.21,5.9 -6.18,3.36 q -0.78,1.46 -3.36,1.13 l -4.49,0.56 -2.81,0.56 -6.73,-2.25 -4.49,-2.8 -4.77,-4.21 -2.25,-5.61 q -1.59,-1.5 -1.12,-5.05 l 0,-7.86 3.65,-8.14 4.77,-4.21 3.93,-2.24 5.33,-1.97 z"
     id="path54"
     inkscape:connector-curvature="0"
     style="opacity:1;fill:none;stroke:#000000;stroke-width:0.354" />
  <path
     d="m 1242.3154,337.97874 q 2.6628,-0.69711 3.3628,0.56289 l 3.09,1.4 q 2.55,1.94 2.25,6.74 l -3.09,4.77 q -1.87,1.77 -6.17,1.12 -3.44,-0.77 -4.77,-3.65 l -0.57,-5.61 3.09,-4.21 2.81,-1.12 z"
     id="path56"
     inkscape:connector-curvature="0"
     style="opacity:1;fill:none;stroke:#000000;stroke-width:0.354" />
  <path
     d="m 1550.4198,341.90722 q 3.6684,-0.58559 4.7684,1.40441 l 0.56,2.8 -1.96,2.53 -2.25,0.56 -2.52,-1.4 -0.56,-3.93 1.96,-1.96 z"
     id="path62"
     inkscape:connector-curvature="0"
     style="opacity:1;fill:none;stroke:#000000;stroke-width:0.354" />
  <path
     d="m 1638.5298,345.83569 q 3.5084,-0.98406 4.4884,0.56594 l 2.53,1.4 q 1.94,1.99 2.24,5.61 l -2.52,5.33 -2.25,1.12 q -0.98,1.55 -4.49,0.57 l -4.21,-2.53 -1.12,-2.24 -0.56,-3.93 4.21,-5.33 1.68,-0.57 z"
     id="path64"
     inkscape:connector-curvature="0"
     style="opacity:1;fill:none;stroke:#000000;stroke-width:0.354" />
  <path
     d="m 1243.999,371.65135 6.1692,1.68028 q 3.83,-0.18 5.06,2.25 l 5.89,4.21 2.8,5.61 q 2.06,1.59 1.69,5.61 l 0.56,6.17 -2.81,7.86 231.5,0.28 0.28,-0.84 -2.24,-6.17 -0.56,-4.49 0.56,-2.81 q -0.5,-3.87 1.4,-5.33 l 4.49,-7.3 5.33,-3.64 3.65,-1.41 6.73,-1.68 6.18,1.68 q 3.59,-0.22 4.77,1.97 l 6.17,4.49 2.53,4.77 q 2.26,1.94 1.96,6.45 l 0.56,6.17 -1.68,4.49 q -0.82,4.24 -3.65,6.46 l -3.09,3.09 -1.12,2.24 q 2.05,0.76 1.68,3.93 l 0.57,4.49 -1.69,3.93 -1.68,3.36 -3.65,3.65 -2.8,1.12 -5.06,0.57 -13.46,0 -52.2,0 -208.77,0 -5.33,-2.53 -2.52,-3.09 -1.69,-2.8 -1.12,-3.37 -0.28,-3.09 0.56,-2.24 0.56,-2.25 1.12,-2.8 -1.68,-1.12 -3.37,-3.93 q -2.05,-1.04 -2.24,-3.93 l -1.69,-5.05 -0.56,-5.05 0.56,-2.81 q -0.4,-3.49 1.41,-4.77 l 4.49,-7.3 4.21,-3.08 q 1.67,-2.26 5.61,-2.25 l 5.89,-1.4 z"
     id="path70"
     inkscape:connector-curvature="0"
     style="opacity:1;fill:none;stroke:#000000;stroke-width:0.354" />
  <path
     d="m 1242.3154,386.80403 q 6.4228,-0.5324 8.1328,3.6476 l 1.13,4.49 q -1.02,4.03 -4.21,5.89 l -5.61,0.56 -3.09,-1.96 q -1.94,-1.99 -2.25,-5.61 l 1.97,-4.77 3.93,-2.25 z"
     id="path80"
     inkscape:connector-curvature="0"
     style="opacity:1;fill:none;stroke:#000000;stroke-width:0.354" />
  <path
     d="m 1512.8187,386.80403 q 6.4295,-0.5324 8.1395,3.6476 l 1.12,4.49 -3.09,5.33 q -2.04,1.6 -6.17,1.12 l -3.09,-1.4 q -2.45,-2.04 -2.8,-6.17 l 1.96,-4.77 3.93,-2.25 z"
     id="path82"
     inkscape:connector-curvature="0"
     style="opacity:1;fill:none;stroke:#000000;stroke-width:0.354" />
  <path
     d="m 1636.285,390.7325 7.0132,0.27913 q 3.77,-0.4 5.33,1.4 l 7.02,4.21 3.37,5.05 q 2.07,1.57 2.24,5.06 l 1.12,7.29 -1.12,5.61 -0.56,1.13 q 0.28,2.52 -1.68,2.8 l -4.21,5.89 -6.18,3.37 q -0.78,1.46 -3.36,1.12 l -4.49,0.57 -2.81,0.56 -6.73,-2.25 -4.49,-2.8 -4.77,-4.21 -2.25,-5.62 q -1.59,-1.49 -1.12,-5.05 l 0,-7.85 3.65,-8.14 4.77,-4.21 3.93,-2.24 5.33,-1.97 z"
     id="path84"
     inkscape:connector-curvature="0"
     style="opacity:1;fill:none;stroke:#000000;stroke-width:0.354" />
  <path
     d="m 1638.5298,405.32396 q 3.5084,-0.98233 4.4884,0.55767 l 2.53,1.41 q 1.94,1.98 2.24,5.61 l -2.52,5.33 -2.25,1.12 q -0.98,1.55 -4.49,0.56 l -4.21,-2.52 -1.12,-2.25 -0.56,-3.92 4.21,-5.34 1.68,-0.56 z"
     id="path90"
     inkscape:connector-curvature="0"
     style="opacity:1;fill:none;stroke:#000000;stroke-width:0.354" />
  <g
     id="g4432"
     transform="translate(825.23517,961.5572)">
    <path
       style="opacity:1;fill:none;stroke:#000000;stroke-width:0.354"
       inkscape:connector-curvature="0"
       id="path44"
       d="m 247.77428,-948.05782 24.69572,2.80792 5.61,0.56 q 2.53,-0.56 3.09,0.84 l 5.05,2.81 23.57,14.03 14.31,19.92 2.8,3.93 1.69,3.93 1.4,7.01 5.05,23.01 -5.05,23.01 -1.4,6.46 q 0.25,3.33 -1.97,4.2 l -3.64,5.34 -15.16,20.2 -19.64,11.22 -5.33,3.09 -3.65,1.4 -2.24,0.56 -6.74,0.57 -23.57,2.24 -21.32,-7.29 -6.46,-1.97 q -2.94,-0.42 -4.21,-2.52 l -5.61,-5.06 -17.12,-15.43 -10.1,-22.45 -2.24,-5.05 -1.13,-3.93 0,-6.17 0,-24.69 8.98,-19.65 3.09,-7.01 q 0.53,-3.4 2.81,-5.05 l 16.83,-15.15 7.86,-6.18 7.3,-2.24 22.44,-7.3 z" />
    <path
       style="opacity:1;fill:none;stroke:#000000;stroke-width:0.354"
       inkscape:connector-curvature="0"
       id="path48"
       d="m 254.50881,-940.76208 q 3.09119,-0.83782 3.93119,0.56218 l 3.65,2.52 q 1.77,1.88 1.12,6.18 l -3.09,4.21 q -1.87,1.77 -6.17,1.12 l -4.21,-3.09 q -1.6,-2.04 -1.12,-6.17 l 3.08,-4.21 2.81,-1.12 z" />
    <path
       style="opacity:1;fill:none;stroke:#000000;stroke-width:0.354"
       inkscape:connector-curvature="0"
       id="path58"
       d="m 218.03015,-911.01794 q 4.42985,1.17804 6.44985,4.76804 l 11.79,11.79 0.56,3.93 q -0.7,2.66 -4.77,1.96 l -17.12,-16.56 -0.56,-2.8 1.97,-2.53 1.68,-0.56 z" />
    <path
       style="opacity:1;fill:none;stroke:#000000;stroke-width:0.354"
       inkscape:connector-curvature="0"
       id="path68"
       d="m 252.82518,-881.83502 5.05482,-0.005 q 2.58,-0.33 3.36,1.13 l 3.65,1.96 1.97,3.09 0.84,1.4 1.12,5.61 -0.84,3.09 q -0.91,4.14 -3.93,6.17 l -5.05,2.25 -5.05,0.56 q -5.7,-1.32 -8.7,-5.33 l -1.12,-2.81 -0.56,-2.8 0,-5.06 q 1.37,-5.07 5.33,-7.57 l 3.93,-1.69 z" />
    <path
       style="opacity:1;fill:none;stroke:#000000;stroke-width:0.354"
       inkscape:connector-curvature="0"
       id="path72"
       d="m 190.53085,-876.78413 q 3.86915,-0.50577 5.32915,1.40423 l 2.25,1.68 0.56,1.69 0.56,4.49 -3.65,4.77 -6.17,0.56 -4.21,-3.65 -0.56,-5.61 3.08,-4.21 2.81,-1.12 z" />
    <path
       style="opacity:1;fill:none;stroke:#000000;stroke-width:0.354"
       inkscape:connector-curvature="0"
       id="path74"
       d="m 318.48676,-876.78413 q 5.59324,-0.26577 7.57324,3.08423 1.87,2.06 1.13,6.74 l -1.97,3.08 q -1.96,2.53 -7.29,1.69 l -4.21,-3.09 q -1.53,-1.84 -1.13,-5.61 l 1.41,-3.09 4.49,-2.8 z" />
    <path
       style="opacity:1;fill:none;stroke:#000000;stroke-width:0.354"
       inkscape:connector-curvature="0"
       id="path86"
       d="m 277.51842,-850.40725 q 3.27158,-0.47265 4.21158,1.40735 l 2.8,2.8 11.79,11.79 q 1.57,0.95 1.12,3.93 l -1.4,1.96 -3.37,0.56 -17.12,-16.55 -0.56,-3.37 1.41,-1.97 1.12,-0.56 z" />
    <path
       style="opacity:1;fill:none;stroke:#000000;stroke-width:0.354"
       inkscape:connector-curvature="0"
       id="path92"
       d="m 254.50881,-812.80617 q 2.66119,-0.70373 3.37119,0.55627 l 3.08,1.41 q 2.96,2.09 2.25,7.85 l -1.97,3.09 q -1.98,1.94 -5.61,2.25 l -5.33,-2.53 -1.12,-2.24 q -1.55,-0.99 -0.56,-4.49 0.77,-3.44 3.64,-4.77 l 2.25,-1.13 z" />
  </g>
  <g
     id="g4422"
     transform="translate(486.86441,955.4714)">
    <path
       style="opacity:1;fill:none;stroke:#000000;stroke-width:0.354"
       inkscape:connector-curvature="0"
       id="path46"
       d="m 407.15797,-948.05782 25.25203,2.80792 5.05,0.56 q 3.18,-0.37 4.49,1.12 l 5.05,3.37 21.61,12.07 14.31,19.92 3.65,4.77 q 1.98,1.66 1.96,5.33 l 1.13,5.05 3.64,17.12 0.85,4.21 0.28,4.21 -4.77,21.6 -1.41,6.46 q -1.2,5.25 -4.77,8.13 l -15.71,21.33 -20.49,11.5 -5.33,3.09 -2.8,1.12 -2.25,0.56 -7.29,0.57 -23.01,2.24 -19.65,-6.73 -7.85,-2.25 q -5.8,-2.06 -8.98,-6.73 l -18.8,-17.12 -9.26,-21.05 -2.53,-5.89 -1.12,-3.93 0,-6.73 0,-24.69 9.54,-20.77 2.81,-6.73 q 0.91,-3.86 4.21,-5.33 l 16.27,-14.6 3.65,-3.08 2.8,-1.69 5.9,-1.96 23.57,-7.86 z" />
    <path
       style="opacity:1;fill:none;stroke:#000000;stroke-width:0.354"
       inkscape:connector-curvature="0"
       id="path50"
       d="m 413.89249,-940.76208 q 5.67751,-0.62782 7.57751,2.52218 l 1.4,3.65 0.28,2.53 -3.08,4.77 q -1.87,1.77 -6.18,1.12 l -4.77,-3.65 -0.56,-6.17 3.65,-4.21 1.68,-0.56 z" />
    <path
       style="opacity:1;fill:none;stroke:#000000;stroke-width:0.354"
       inkscape:connector-curvature="0"
       id="path60"
       d="m 377.97504,-911.01794 q 4.06496,0.97804 5.61496,4.48804 l 12.62,12.63 0.57,2.8 -1.97,2.53 q -3.65,0.84 -4.49,-1.12 l -3.08,-3.09 -12.91,-12.91 q -0.7,-4.07 1.96,-4.77 l 1.69,-0.56 z" />
    <path
       style="opacity:1;fill:none;stroke:#000000;stroke-width:0.354"
       inkscape:connector-curvature="0"
       id="path66"
       d="m 414.4537,-882.39623 2.8063,0.55633 q 2.97,-0.44 3.93,1.13 l 4.21,3.08 q 3.61,3.12 2.8,10.67 l -1.4,3.64 -2.24,3.37 -3.93,2.25 -1.69,0.56 -5.05,0.56 q -5.69,-1.32 -8.7,-5.33 l -1.68,-3.93 q -1.4,-1.96 -0.56,-6.17 l 2.52,-5.34 2.81,-2.24 2.53,-1.4 3.64,-1.41 z" />
    <path
       style="opacity:1;fill:none;stroke:#000000;stroke-width:0.354"
       inkscape:connector-curvature="0"
       id="path76"
       d="m 349.91453,-876.78413 q 6.11547,-0.22577 8.13547,3.64423 1.41,1.97 0.56,6.18 l -1.96,3.08 q -1.97,2.53 -7.3,1.69 l -3.64,-2.53 -1.13,-2.8 -0.56,-2.25 q 0.63,-4.14 3.65,-5.89 l 2.24,-1.12 z" />
    <path
       style="opacity:1;fill:none;stroke:#000000;stroke-width:0.354"
       inkscape:connector-curvature="0"
       id="path78"
       d="m 478.43166,-876.78413 q 5.06834,-0.29577 7.01834,2.52423 2.15,1.78 1.68,6.17 -0.7,3.23 -3.09,4.77 -1.62,2.03 -6.17,1.13 l -4.21,-3.09 q -1.78,-1.87 -1.12,-6.17 l 3.09,-4.21 2.8,-1.12 z" />
    <path
       style="opacity:1;fill:none;stroke:#000000;stroke-width:0.354"
       inkscape:connector-curvature="0"
       id="path88"
       d="m 437.46332,-850.40725 q 2.87668,-0.35265 3.64668,1.40735 l 3.09,3.08 12.63,12.63 0.56,1.68 -2.53,3.65 q -3.23,0.7 -3.93,-1.12 l -3.08,-3.09 -12.91,-12.91 q -0.84,-3.92 1.4,-4.77 l 1.12,-0.56 z" />
    <path
       style="opacity:1;fill:none;stroke:#000000;stroke-width:0.354"
       inkscape:connector-curvature="0"
       id="path94"
       d="m 414.4537,-812.80617 q 2.6663,-0.70373 3.3663,0.55627 l 4.21,3.09 1.12,4.49 q -0.49,3.72 -3.08,5.33 l -4.49,1.69 -1.69,-0.56 -1.96,-0.85 -2.25,-1.68 q -1.87,-2.06 -1.12,-6.73 l 3.09,-4.21 2.8,-1.13 z" />
  </g>
  <path
     d="m 1636.285,450.22078 7.0132,0.28085 q 3.77,-0.41 5.33,1.4 l 7.02,4.21 3.37,5.05 q 2.07,1.57 2.24,5.05 l 1.12,7.3 -1.12,5.61 -0.56,1.12 q 0.28,2.53 -1.68,2.81 l -4.21,5.89 -6.18,3.37 q -0.78,1.46 -3.36,1.12 l -4.49,0.56 -2.81,0.56 -6.73,-2.24 -4.49,-2.81 -4.77,-4.21 -2.25,-5.61 q -1.59,-1.49 -1.12,-5.05 l 0,-7.86 3.65,-8.13 4.77,-4.21 3.93,-2.25 5.33,-1.96 z"
     id="path96"
     inkscape:connector-curvature="0"
     style="opacity:1;fill:none;stroke:#000000;stroke-width:0.354" />
  <path
     d="m 1242.8766,453.58804 7.5716,1.40359 q 3.34,-0.25 4.21,1.96 l 6.46,4.77 2.8,5.62 1.13,1.68 0.56,3.93 0.56,5.61 -2.81,8.42 231.5,0.28 0.28,-0.84 -2.24,-6.18 -0.56,-4.49 0.56,-2.8 q -0.4,-3.77 1.12,-5.61 l 5.33,-7.58 4.49,-2.81 q 0.87,-2.21 4.21,-1.96 l 7.02,-1.4 5.89,1.4 q 3.34,-0.25 4.21,1.96 l 6.45,4.77 3.09,5.34 1.12,3.36 0.28,2.53 0.56,5.61 -1.96,5.89 -1.97,3.65 -5.61,6.74 q 2,1.08 1.68,4.49 l 0.57,4.48 -1.41,3.65 q -1.42,4.47 -5.05,6.74 l -3.93,1.68 -5.05,0.56 -12.9,0 -52.2,0 -208.21,0 q -6.14,-1.71 -9.26,-6.45 l -1.68,-5.05 -0.56,-3.37 0.56,-2.24 0.56,-2.25 1.12,-2.81 -5.89,-6.45 q -2.31,-2.46 -2.81,-6.73 -1.43,-1.94 -0.84,-5.9 l 0.56,-2.8 q -0.32,-3.41 1.13,-5.05 l 5.33,-7.58 4.49,-2.81 q 0.87,-2.21 4.21,-1.96 l 5.33,-1.4 z"
     id="path98"
     inkscape:connector-curvature="0"
     style="opacity:1;fill:none;stroke:#000000;stroke-width:0.354" />
  <path
     d="m 1638.5298,464.81224 q 3.5084,-0.98061 4.4884,0.55939 l 2.53,1.4 q 1.94,1.99 2.24,5.62 l -2.52,5.33 -2.25,1.12 q -0.98,1.54 -4.49,0.56 l -4.21,-2.52 -1.12,-2.25 -0.56,-3.93 4.21,-5.33 1.68,-0.56 z"
     id="path100"
     inkscape:connector-curvature="0"
     style="opacity:1;fill:none;stroke:#000000;stroke-width:0.354" />
  <path
     d="m 1241.7542,468.74071 q 3.834,-0.74908 5.614,0.56092 l 2.52,1.96 1.69,5.06 q -0.63,4.13 -3.65,5.89 -1.68,1.68 -5.61,1.12 l -4.77,-3.65 -1.13,-3.93 2.53,-5.33 2.81,-1.68 z"
     id="path102"
     inkscape:connector-curvature="0"
     style="opacity:1;fill:none;stroke:#000000;stroke-width:0.354" />
  <path
     d="m 1512.2575,468.74071 q 3.8307,-0.74908 5.6107,0.56092 l 2.53,1.96 1.68,5.62 q -0.86,3.62 -3.65,5.33 -1.68,1.68 -5.61,1.12 l -4.77,-3.65 -1.12,-3.93 2.52,-5.33 2.81,-1.68 z"
     id="path104"
     inkscape:connector-curvature="0"
     style="opacity:1;fill:none;stroke:#000000;stroke-width:0.354" />
  <path
     d="m 1636.285,509.70905 7.0132,0.28258 q 3.77,-0.41 5.33,1.4 l 7.02,4.21 3.37,5.05 q 2.07,1.57 2.24,5.05 l 1.12,7.3 -1.12,5.61 -0.56,1.12 q 0.28,2.53 -1.68,2.81 l -4.21,5.89 -6.18,3.37 q -0.78,1.46 -3.36,1.12 l -4.49,0.56 -2.81,0.56 -6.73,-2.24 -4.49,-2.81 -4.77,-4.21 -2.25,-5.61 q -1.59,-1.5 -1.12,-5.05 l 0,-7.86 3.65,-8.13 4.77,-4.21 3.93,-2.25 5.33,-1.96 z"
     id="path106"
     inkscape:connector-curvature="0"
     style="opacity:1;fill:none;stroke:#000000;stroke-width:0.354" />
  <path
     d="m 1638.5298,524.30052 q 3.5084,-0.97889 4.4884,0.56111 l 2.53,1.4 q 1.94,1.99 2.24,5.62 l -2.52,5.33 -2.25,1.12 q -0.98,1.54 -4.49,0.56 l -4.21,-2.53 -1.12,-2.24 -0.56,-3.93 4.21,-5.33 1.68,-0.56 z"
     id="path108"
     inkscape:connector-curvature="0"
     style="opacity:1;fill:none;stroke:#000000;stroke-width:0.354" />
  <path
     d="m 1842.1652,577.7065 38.7232,0.005 9.54,0 6.45,0.84 10.39,1.96 26.65,5.89 7.86,1.69 4.77,1.4 6.18,2.81 25.81,11.22 8.98,4.49 q 4.85,0.76 7.3,3.93 l 9.54,6.73 21.32,15.72 q 7.8,4.26 13.19,10.94 l 28.06,31.43 3.37,4.49 4.49,7.86 1.68,2.8 0.56,5.05 0,12.91 0,52.19 0.28,206.81 10.95,-0.28 0.28,-255.63 4.77,8.13 1.12,2.25 0.56,2.24 2.25,5.62 8.7,27.22 q 3.65,8.13 5.33,18.23 l 0.56,7.3 q -0.7,2.67 0.56,3.37 l 0.56,10.1 0.56,1.68 0.28,3.65 1.41,13.19 0.84,8.14 0.28,8.7 0,26.93 0,69.03 0,17.4 0,4.49 0.84,3.09 1.4,3.64 7.02,19.93 7.29,20.2 2.53,8.14 0.56,6.73 0.56,2.81 1.69,16.27 2.8,23.01 -2.24,0.56 -0.28,10.9499 -10.95,-0.28 -0.28,-10.9499 -13.19,-0.28 0.28,-10.94 7.58,-0.28 -0.28,-14.31 -7.58,-0.28 -0.28,-9.26 -14.31,0.28 -0.28,9.26 -7.58,0.28 0.29,14.31 7.57,0.28 -0.28,10.94 -12.63,0.28 -0.28,10.9499 -11.5,-0.28 -0.28,-10.9499 -388.08,0.28 -0.28,10.9499 -11.5,-0.28 -0.29,-10.9499 -12.62,-0.28 0.28,-10.94 7.57,-0.28 -0.28,-14.31 -7.57,-0.28 -0.28,-9.26 -14.31,0.28 -0.28,9.26 -7.58,0.28 0.28,14.31 7.58,0.28 -0.28,10.94 -13.19,0.28 -0.28,10.9499 -10.95,-0.28 -0.28,-10.9499 -1.96,-0.28 0.28,-97.93 164.71,-0.28 -0.28,-10.94 -164.71,-0.28 0.28,-19.36 325.78,-0.28 -0.28,-33.96 -54.16,-21.6 -14.03,-5.62 -3.64,-1.4 -5.06,-0.56 -11.78,0 -47.7,0 -189.41,-0.28 0,-28.62 0.56,-15.72 0.56,-1.68 0.28,-3.65 1.4,-14.31 1.97,-17.68 0.56,-5.61 1.4,-5.33 3.37,-10.1 8.42,-25.82 q 1.76,-10.02 7.01,-16.55 l 13.75,-24.42 6.18,-10.66 10.66,-12.91 26.1,-28.9 31.98,-23.01 7.02,-5.33 10.1,-5.05 27.22,-12.07 9.54,-4.49 7.3,-2.24 10.66,-2.25 25.25,-5.05 10.67,-2.8 z"
     id="path110"
     inkscape:connector-curvature="0"
     style="opacity:1;fill:none;stroke:#000000;stroke-width:0.354" />
  <path
     d="m 1636.285,569.19733 7.0132,0.2843 q 3.77,-0.41 5.33,1.4 l 7.02,4.21 3.37,5.05 q 2.07,1.57 2.24,5.05 l 1.12,7.3 -1.12,5.61 -0.56,1.12 q 0.28,2.53 -1.68,2.81 l -4.21,5.89 -6.18,3.37 q -0.78,1.46 -3.36,1.12 l -4.49,0.56 -2.81,0.56 -6.73,-2.24 -4.49,-2.81 -4.77,-4.21 -2.25,-5.61 q -1.59,-1.5 -1.12,-5.05 l 0,-7.86 3.65,-8.14 4.77,-4.21 3.93,-2.24 5.33,-1.96 z"
     id="path112"
     inkscape:connector-curvature="0"
     style="opacity:1;fill:none;stroke:#000000;stroke-width:0.354" />
  <path
     d="m 1638.5298,583.78879 q 3.5084,-0.97716 4.4884,0.56284 l 2.53,1.4 q 1.94,1.99 2.24,5.61 l -2.52,5.34 -2.25,1.12 q -0.98,1.54 -4.49,0.56 l -4.21,-2.53 -1.12,-2.24 -0.56,-3.93 4.21,-5.33 1.68,-0.56 z"
     id="path122"
     inkscape:connector-curvature="0"
     style="opacity:1;fill:none;stroke:#000000;stroke-width:0.354" />
  <g
     id="g4594"
     transform="translate(642.66102,859.31568)">
    <path
       style="opacity:1;fill:none;stroke:#000000;stroke-width:0.354"
       inkscape:connector-curvature="0"
       id="path114"
       d="m 247.77428,-677.55452 24.69572,2.80462 5.61,0.56 q 2.53,-0.56 3.09,0.84 l 5.05,2.81 23.57,14.03 13.47,19.08 3.93,5.05 1.4,3.65 1.4,7.02 5.05,23.01 -5.05,23 -1.4,6.46 q 0.25,3.34 -1.97,4.21 l -3.64,5.33 -15.16,20.2 -21.04,12.07 -4.77,2.52 -2.25,1.13 -2.24,0.56 -7.3,0.56 -23.57,2.24 -21.32,-7.29 -6.46,-1.97 -3.93,-2.24 -5.61,-5.05 -17.4,-15.72 -10.1,-22.44 -2.24,-5.05 -1.13,-3.93 0,-6.18 0,-24.69 14.32,-31.15 17.39,-15.71 7.86,-6.17 7.3,-2.25 22.44,-7.29 z" />
    <path
       style="opacity:1;fill:none;stroke:#000000;stroke-width:0.354"
       inkscape:connector-curvature="0"
       id="path118"
       d="m 254.50881,-670.25879 q 5.59119,-0.26111 7.58119,3.08889 1.77,1.87 1.12,6.17 l -3.09,4.21 q -1.87,1.78 -6.17,1.12 l -4.21,-3.08 q -1.6,-2.05 -1.12,-6.18 l 2.52,-3.65 3.37,-1.68 z" />
    <path
       style="opacity:1;fill:none;stroke:#000000;stroke-width:0.354"
       inkscape:connector-curvature="0"
       id="path124"
       d="m 218.03015,-640.51465 q 4.42985,1.18475 6.44985,4.77475 l 11.79,11.78 0.56,3.93 q -0.84,2.81 -5.33,1.96 l -12.35,-12.34 -3.08,-3.09 q -2.05,-0.76 -1.69,-3.93 l 1.97,-2.52 1.68,-0.56 z" />
    <path
       style="opacity:1;fill:none;stroke:#000000;stroke-width:0.354"
       inkscape:connector-curvature="0"
       id="path128"
       d="m 190.53085,-606.28083 q 3.86915,-0.49907 5.32915,1.40093 l 2.25,1.69 0.56,1.68 0.56,4.49 -3.65,4.77 -6.17,0.56 -4.21,-3.65 q -1.31,-1.77 -0.56,-5.61 l 2.52,-3.65 3.37,-1.68 z" />
    <path
       style="opacity:1;fill:none;stroke:#000000;stroke-width:0.354"
       inkscape:connector-curvature="0"
       id="path130"
       d="m 254.50881,-606.28083 q 5.06119,-0.29907 7.01119,2.52093 2.25,1.97 1.69,6.74 -0.77,3.44 -3.65,4.77 -1.78,1.31 -5.61,0.56 l -4.21,-3.09 q -1.69,-1.68 -1.12,-5.61 l 1.96,-3.65 3.93,-2.24 z" />
    <path
       style="opacity:1;fill:none;stroke:#000000;stroke-width:0.354"
       inkscape:connector-curvature="0"
       id="path140"
       d="m 277.51842,-579.90395 q 3.27158,-0.46595 4.21158,1.40405 l 2.8,2.8 11.79,11.79 1.12,3.93 -1.4,1.96 -3.93,0.56 -12.35,-12.34 -3.08,-3.09 q -2.17,-0.92 -1.69,-4.49 l 1.41,-1.96 1.12,-0.56 z" />
    <path
       style="opacity:1;fill:none;stroke:#000000;stroke-width:0.354"
       inkscape:connector-curvature="0"
       id="path144"
       d="m 253.38639,-541.74166 q 5.39361,-0.89824 7.57361,1.40176 2.96,2.09 2.25,7.86 l -1.97,3.08 -3.36,1.69 -2.25,0.56 -5.33,-2.53 -1.12,-2.24 q -1.55,-0.98 -0.56,-4.49 0.77,-3.44 3.64,-4.77 l 1.13,-0.56 z" />
    <path
       style="opacity:1;fill:none;stroke:#000000;stroke-width:0.354"
       inkscape:connector-curvature="0"
       id="path132"
       d="m 319.04797,-606.28083 q 5.15203,-0.0991 7.01203,3.09093 1.87,2.05 1.13,6.73 l -1.97,3.09 q -1.96,2.52 -7.29,1.68 l -4.21,-3.09 q -1.53,-1.84 -1.13,-5.61 l 3.65,-4.77 2.81,-1.12 z" />
  </g>
  <g
     id="g4584"
     transform="translate(667.00424,854.44703)">
    <path
       style="opacity:1;fill:none;stroke:#000000;stroke-width:0.354"
       inkscape:connector-curvature="0"
       id="path116"
       d="m 407.15797,-677.55452 24.69203,2.80462 5.61,0.56 q 2.98,-0.45 3.93,1.13 l 5.61,3.36 15.44,8.7 q 4.96,1.77 7.85,5.61 l 14.03,19.65 2.81,3.92 q 1.54,1.27 1.4,4.21 l 1.13,5.05 3.64,17.12 0.85,4.21 0.28,4.21 -4.77,21.61 -1.41,6.45 -1.68,3.93 -3.65,5.33 -15.15,20.2 -20.49,11.51 -5.33,3.08 -2.8,1.13 -2.25,0.56 -6.73,0.56 -23.57,2.24 -21.89,-7.29 -6.17,-2.25 q -5.67,-1.62 -8.42,-6.17 l -18.24,-15.99 -9.82,-22.17 -2.53,-5.33 -1.12,-3.93 0,-6.74 0,-25.25 9.54,-20.77 2.81,-6.73 q 0.91,-3.86 4.21,-5.33 l 16.27,-14.59 3.65,-3.09 2.8,-1.68 5.9,-1.97 23.57,-7.85 z" />
    <path
       style="opacity:1;fill:none;stroke:#000000;stroke-width:0.354"
       inkscape:connector-curvature="0"
       id="path120"
       d="m 413.89249,-670.25879 q 5.67751,-0.63111 7.57751,2.52889 l 1.4,3.64 0.28,2.53 -3.08,4.77 q -1.87,1.78 -6.18,1.12 l -4.77,-3.65 -0.56,-6.17 3.09,-3.65 2.24,-1.12 z" />
    <path
       style="opacity:1;fill:none;stroke:#000000;stroke-width:0.354"
       inkscape:connector-curvature="0"
       id="path126"
       d="m 377.97504,-640.51465 q 4.06496,0.98475 5.61496,4.48475 l 12.62,12.63 0.57,2.81 -1.97,2.52 q -3.65,0.85 -4.49,-1.12 l -3.08,-3.09 -12.91,-12.9 q -0.7,-4.07 1.96,-4.77 l 1.69,-0.56 z" />
    <path
       style="opacity:1;fill:none;stroke:#000000;stroke-width:0.354"
       inkscape:connector-curvature="0"
       id="path134"
       d="m 350.47574,-606.28083 q 5.65426,-0.0491 7.57426,3.65093 1.41,1.96 0.56,6.17 l -1.96,3.09 q -1.97,2.52 -7.3,1.68 l -3.64,-2.52 q -1.71,-1.66 -1.69,-5.06 0.63,-4.13 3.65,-5.89 l 2.81,-1.12 z" />
    <path
       style="opacity:1;fill:none;stroke:#000000;stroke-width:0.354"
       inkscape:connector-curvature="0"
       id="path136"
       d="m 414.4537,-606.28083 2.5263,0.28093 3.93,1.68 q 2.4,1.81 2.24,6.18 -0.49,3.71 -3.08,5.33 -2.06,1.87 -6.74,1.12 l -3.65,-2.52 q -1.87,-2.06 -1.12,-6.74 l 3.09,-4.21 2.8,-1.12 z" />
    <path
       style="opacity:1;fill:none;stroke:#000000;stroke-width:0.354"
       inkscape:connector-curvature="0"
       id="path138"
       d="m 478.43166,-606.28083 q 4.76834,9.3e-4 7.01834,2.52093 2.15,1.78 1.68,6.18 -0.7,3.22 -3.09,4.77 -1.62,2.02 -6.17,1.12 -3.44,-0.77 -4.77,-3.65 l -0.56,-5.61 3.09,-4.21 2.8,-1.12 z" />
    <path
       style="opacity:1;fill:none;stroke:#000000;stroke-width:0.354"
       inkscape:connector-curvature="0"
       id="path142"
       d="m 437.46332,-579.90395 q 2.87668,-0.34595 3.64668,1.40405 l 3.09,3.09 12.63,12.62 0.56,1.69 -2.53,3.64 q -3.23,0.71 -3.93,-1.12 l -3.08,-3.08 -12.91,-12.91 q -0.84,-3.93 1.4,-4.77 l 1.12,-0.56 z" />
    <path
       style="opacity:1;fill:none;stroke:#000000;stroke-width:0.354"
       inkscape:connector-curvature="0"
       id="path146"
       d="m 413.33128,-541.74166 q 7.04872,-1.15824 8.69872,3.08176 1.44,1.65 1.12,5.06 -0.86,3.62 -3.65,5.33 l -3.92,1.12 -1.69,-0.56 -1.68,-0.56 -2.53,-1.97 q -1.87,-2.05 -1.12,-6.73 l 3.09,-4.21 1.68,-0.56 z" />
  </g>
  <g
     id="g4525"
     transform="translate(929.91102,226.39195)">
    <path
       style="opacity:1;fill:none;stroke:#000000;stroke-width:0.354"
       inkscape:connector-curvature="0"
       id="path148"
       d="m 1110.3543,-206.13801 13.4657,0 q 4.84,-0.63 7.58,0.84 l 9.26,1.97 6.17,2.24 6.18,2.81 q 5.58,1.43 8.98,5.05 7.36,4.15 12.62,10.38 l 8.7,10.95 3.93,6.73 3.09,6.45 2.52,8.14 q 1.93,3.4 1.97,8.7 l 0.84,8.14 0.28,7.57 -0.56,1.69 -0.28,3.65 -0.28,5.33 -4.21,13.19 q -2.16,7.380002 -6.46,12.620002 l -4.77,7.02 -8.98,10.1 -9.82,7.02 -0.28,105.78 -20.48,-0.28 -0.28,-11.5 -12.63,-0.28 0.28,-10.95 7.58,-0.28 -0.28,-13.7500004 -7.58,-0.28 -0.28,-9.82 -14.87,0.28 -0.28,9.82 -7.58,0.28 0.28,13.7500004 7.58,0.28 -0.28,10.95 -12.63,0.28 -0.28,11.5 -20.49,-0.28 0,-79.13 0,-19.64 0,-5.05 q 0.43,-2.67 -1.4,-3.09 l -8.7,-5.89 -8.13,-9.26 -3.93,-5.05 -3.65,-7.02 q -3.11,-2.78 -3.93,-7.850002 l -2.81,-8.42 -1.68,-6.74 -1.12,-15.15 0.56,-2.81 0.56,-7.29 1.97,-7.58 1.96,-7.01 q 2.37,-7.17 6.45,-12.63 l 4.77,-7.01 9.82,-10.95 9.55,-6.73 1.96,-1.41 1.96,-0.84 7.58,-3.65 4.21,-1.96 4.49,-1.12 11.78,-2.81 z" />
    <path
       style="opacity:1;fill:none;stroke:#000000;stroke-width:0.354"
       inkscape:connector-curvature="0"
       id="path168"
       d="m 1119.3337,-139.91521 3.9263,1.1253 q 4.98,0.91 7.02,4.77 2.36,2.96 2.24,8.42 -1.1,6.19 -5.33,9.26 -3.74,3.55 -12.35,2.24 l -1.68,-0.56 -3.65,-0.28 -12.06,-1.4 -15.16,-1.69 -7.29,-0.56 -2.25,-0.56 -7.57,-0.84 -5.9,-0.84 q -3.11,-0.26 -4.2,-2.53 l -1.13,-3.93 q 0.7,-3.23 3.09,-4.77 2.95,-1.54 7.58,-1.4 l 10.1,-1.12 31.71,-3.65 10.1,-1.12 2.8,-0.57 z" />
  </g>
  <path
     d="m 618.95566,15.613054 10.94188,0.2853 0.28,11.5 12.63,0.28 -0.28,10.94 -7.58,0.28 0.28,13.75 7.58,0.29 0.28,9.819999 14.87,-0.28 0.28,-9.829999 7.58,-0.28 -0.28,-13.75 -7.58,-0.28 0.28,-10.94 12.63,-0.28 0.28,-11.51 10.94,0.29 -0.28,11.5 -1.4,0.28 0.28,97.369996 1.4,0.28 -0.28,10.94 -10.94,-0.28 -0.28,-10.94 -12.63,-0.28 0.28,-10.94 7.58,-0.28 -0.28,-13.749997 -7.58,-0.28 -0.28,-9.83 -14.87,0.29 -0.28,9.82 -7.58,0.279997 0.28,13.75 7.58,0.28 -0.28,10.94 -12.63,0.28 -0.28,10.94 -10.94,-0.28 0.28,-10.94 1.4,-0.28 -0.28,-70.989996 -18.8,-0.28 0.28,-10.95 18.8,-0.28 -0.28,-14.87 -1.4,-0.28 0.28,-11.51 z"
     id="path188"
     inkscape:connector-curvature="0"
     style="opacity:1;fill:none;stroke:#000000;stroke-width:0.354" />
  <path
     d="m 2035.3533,301.63863 73.2413,0.2796 -0.28,274.71 -73.24,-0.28 -0.28,-9.26 -10.95,-0.28 0.28,-10.94 10.95,-0.28 0.28,-12.63 10.94,0.28 0.28,7.58 14.31,-0.28 0.28,-7.58 9.26,-0.28 -0.28,-14.87 -9.26,-0.28 -0.28,-7.58 -14.31,0.28 -0.28,7.58 -10.94,-0.28 -0.28,-12.63 -10.95,-0.28 0.28,-10.94 10.95,-0.28 0.28,-9.26 41.81,-0.29 -0.28,-80.53 -10.38,-0.28 -0.28,-21.04 -21.05,0.28 -0.28,21.04 -9.82,-0.28 -0.28,-45.74 -10.95,-0.28 0.28,-10.94 10.95,-0.28 0.28,-12.63 10.94,0.28 0.28,7.58 14.31,-0.28 0.28,-7.58 9.26,-0.28 -0.28,-14.87 -9.26,-0.28 -0.28,-7.58 -14.31,0.28 -0.28,7.58 -10.94,-0.28 -0.28,-12.63 -10.95,-0.28 0.28,-10.94 10.95,-0.29 0.28,-1.96 z"
     id="path192"
     inkscape:connector-curvature="0"
     style="opacity:1;fill:none;stroke:#000000;stroke-width:0.354" />
  <g
     id="g4529"
     transform="translate(813.06356,-21.908898)">
    <path
       style="opacity:1;fill:none;stroke:#000000;stroke-width:0.354"
       inkscape:connector-curvature="0"
       id="path190"
       d="m 1043.0091,43.600492 20.4809,0.2796 0.28,10.94 12.63,0.29 -0.28,10.94 -7.58,0.28 0.28,14.31 7.58,0.28 0.28,9.26 14.31,-0.28 0.28,-9.26 7.58,-0.28 -0.28,-14.31 -7.58,-0.28 0.28,-10.95 13.19,-0.28 0.28,-10.94 19.93,0.28 -0.29,166.399998 -5.33,0.28 -0.56,6.17 q -0.55,5.9 -3.37,9.54 l -3.92,6.18 -4.21,4.77 q -4.65,4.33 -11.51,6.45 l -5.33,1.4 -3.93,0.57 -6.73,0 -5.61,-1.13 -8.7,-4.21 q -6.11,-3.42 -10.1,-8.97 l -2.81,-5.62 -1.12,-1.68 -1.41,-4.77 -0.84,-4.21 -0.84,-4.77 -5.33,-0.28 0.28,-166.399998 z" />
    <path
       style="opacity:1;fill:none;stroke:#000000;stroke-width:0.354"
       inkscape:connector-curvature="0"
       id="path208"
       d="m 1081.7326,202.42299 q 6.4674,-0.5729 8.6974,3.0871 1.97,2.24 1.12,7.3 l -3.08,4.2 q -2.25,1.97 -7.3,1.13 l -3.09,-1.97 q -2.95,-2.09 -2.24,-7.85 l 3.65,-4.77 2.24,-1.13 z" />
  </g>
  <g
     id="g4464"
     transform="translate(-115.6303,215.4375)">
    <g
       id="g4491"
       transform="translate(-91.287076,12.17161)">
      <g
         id="g4488"
         transform="translate(43.817797,0)">
        <path
           style="opacity:1;fill:none;stroke:#000000;stroke-width:0.354"
           inkscape:connector-curvature="0"
           id="path150"
           d="m 392.5665,-202.77071 41.5335,8e-4 10.1,0 q 4.14,-0.49 6.45,0.84 l 12.07,2.53 23.57,5.05 6.73,1.12 10.95,4.21 25.53,11.5 11.23,5.05 2.8,1.13 2.25,1.68 9.54,6.74 32.83,24.41 22.73,25.53 q 6.64,5.99 11.5,13.750002 l 8.42,15.16 2.25,3.36 0.56,1.69 0,4.49 0,16.83 0,67.3499996 -4.49,0.5600004 -0.28,27.78 -292.11,0.28 0.56,2.8 0,6.74 -0.56,1.12 292.39,0.56 0.28,27.78 4.21,0.28 0,66.789998 0,16.83 0,3.93 -0.56,2.25 -1.97,3.65 -8.7,15.43 -2.8,3.93 -9.26,10.38 -24.7,27.5 -31.99,23.01 -7.29,5.05 -4.49,2.81 -10.66,5.05 -26.38,11.78 -4.77,1.97 -7.3,2.24 -6.45,1.4 -26.38,5.62 -9.26,1.96 -6.45,0.84 -10.1,0 -41.53,0 -35.36,-7.86 -9.82,-1.96 q -4.5,-0.27 -7.02,-2.52 l -10.66,-4.49 -24.41,-10.95 -7.58,-3.08 -3.93,-2.81 -7.85,-5.61 -32.27,-23.29 -24.7,-27.5 -7.57,-8.7 -4.21,-5.89 -5.61,-9.54 -14.03,-24.7 -3.09,-5.33 -1.96,-4.77 -1.69,-6.17 -9.26,-27.78 -2.8,-8.419998 -1.13,-3.93 -0.28,-2.52 -1.12,-10.67 -2.81,-26.94 -1.12,-13.47 0.56,-2.8 0.56,-5.61 2.81,-26.3800004 1.12,-10.66 0.28,-3.09 0.84,-3.6499996 3.93,-11.22 8.42,-25.82 q 1.81,-9.69 7.02,-15.99 l 13.47,-23.57 5.89,-9.82 q 1.11,-3.940002 3.93,-6.180002 l 7.29,-8.42 26.1,-28.9 32.55,-23.57 7.58,-5.33 10.94,-5.33 26.38,-11.79 8.41,-3.93 5.62,-1.68 9.26,-1.96 37.32,-8.14 z" />
      </g>
      <g
         id="g4442">
        <path
           style="opacity:1;fill:none;stroke:#000000;stroke-width:0.354"
           inkscape:connector-curvature="0"
           id="path156"
           d="m 378.53625,-181.44471 26.65375,0.2848 -0.28,10.94 -26.65,-0.28 0.28,-10.94 z" />
        <path
           style="opacity:1;fill:none;stroke:#000000;stroke-width:0.354"
           inkscape:connector-curvature="0"
           id="path158"
           d="m 435.21848,-181.44471 26.66152,0.2848 -0.28,10.94 -26.66,-0.28 0.28,-10.94 z" />
        <path
           style="opacity:1;fill:none;stroke:#000000;stroke-width:0.354"
           inkscape:connector-curvature="0"
           id="path164"
           d="m 415.01491,-171.90421 10.94509,0.2843 -0.28,12.62 -10.95,-0.28 0.28,-12.62 z" />
        <path
           style="opacity:1;fill:none;stroke:#000000;stroke-width:0.354"
           inkscape:connector-curvature="0"
           id="path166"
           d="m 420.0658,-147.77211 q 4.6342,0.4222 6.4542,3.6522 1.44,1.64 1.12,5.05 -0.86,3.62 -3.65,5.33 l -3.92,1.12 -1.69,-0.56 -1.68,-0.56 -2.53,-1.97 -1.68,-4.49 0.56,-1.68 0.56,-1.68 1.97,-2.53 4.49,-1.68 z" />
        <path
           style="opacity:1;fill:none;stroke:#000000;stroke-width:0.354"
           inkscape:connector-curvature="0"
           id="path170"
           d="m 552.5114,-120.83401 11.5086,0.2841 -0.28,12.62 -11.51,-0.28 0.28,-12.62 z" />
        <path
           style="opacity:1;fill:none;stroke:#000000;stroke-width:0.354"
           inkscape:connector-curvature="0"
           id="path172"
           d="m 415.01491,-119.71161 10.94509,0.2817 -0.28,12.63 -10.95,-0.28 0.28,-12.63 z" />
        <path
           style="opacity:1;fill:none;stroke:#000000;stroke-width:0.354"
           inkscape:connector-curvature="0"
           id="path174"
           d="m 493.58433,-115.78321 41.24567,0.2833 -0.28,80.530002 -41.25,-0.28 0.28,-80.530002 z" />
        <path
           style="opacity:1;fill:none;stroke:#000000;stroke-width:0.354"
           inkscape:connector-curvature="0"
           id="path176"
           d="m 557.56229,-96.702008 q 5.10771,0.2221 7.01771,3.6521 l 0.56,6.17 -1.97,3.09 q -1.96,2.52 -7.29,1.68 l -3.65,-2.53 q -1.71,-1.66 -1.68,-5.05 0.63,-4.14 3.65,-5.89 l 3.36,-1.12 z" />
        <path
           style="opacity:1;fill:none;stroke:#000000;stroke-width:0.354"
           inkscape:connector-curvature="0"
           id="path178"
           d="m 305.57893,-84.355408 41.81107,0.2855 -0.28,80.5299996 -10.38,0.28 -0.28,21.0400004 -21.05,-0.28 -0.28,-21.0400004 -9.82,-0.28 0.28,-80.5399996 z" />
        <path
           style="opacity:1;fill:none;stroke:#000000;stroke-width:0.354"
           inkscape:connector-curvature="0"
           id="path180"
           d="m 552.5114,-68.641508 11.5086,0.2816 -0.28,12.63 -11.51,-0.28 0.28,-12.63 z" />
        <path
           style="opacity:1;fill:none;stroke:#000000;stroke-width:0.354"
           inkscape:connector-curvature="0"
           id="path182"
           d="m 617.61178,-65.835508 q 5.06822,-0.2944 7.01822,2.5256 2.15,1.78 1.68,6.17 -0.7,3.23 -3.09,4.77 -1.62,2.02 -6.17,1.13 l -4.21,-3.09 q -1.78,-1.87 -1.12,-6.17 l 3.09,-4.21 2.8,-1.13 z" />
        <path
           style="opacity:1;fill:none;stroke:#000000;stroke-width:0.354"
           inkscape:connector-curvature="0"
           id="path184"
           d="m 618.17299,-35.530108 2.24701,0.5602 3.65,1.4 q 2.85,1.92 2.24,7.3 l -2.52,4.21 -5.62,1.68 -5.33,-3.08 q -1.6,-2.05 -1.12,-6.18 l 1.4,-3.08 5.05,-2.81 z" />
        <path
           style="opacity:1;fill:none;stroke:#000000;stroke-width:0.354"
           inkscape:connector-curvature="0"
           id="path196"
           d="m 618.7342,107.57849 q 4.3858,0.3916 6.4558,3.0916 l 0.56,1.68 0.56,4.49 -3.65,4.77 -2.8,1.12 -2.81,-0.56 q -3.44,-0.77 -4.77,-3.65 l -0.56,-5.05 2.52,-4.21 4.49,-1.68 z" />
        <path
           style="opacity:1;fill:none;stroke:#000000;stroke-width:0.354"
           inkscape:connector-curvature="0"
           id="path198"
           d="m 616.48936,138.44499 q 6.80064,-0.9149 8.70064,3.0851 1.68,1.69 1.12,5.61 l -1.4,3.09 q -2.14,2.63 -6.74,2.81 l -4.77,-2.53 q -2.24,-1.96 -1.68,-6.73 0.77,-3.44 3.65,-4.77 l 1.12,-0.57 z" />
        <path
           style="opacity:1;fill:none;stroke:#000000;stroke-width:0.354"
           inkscape:connector-curvature="0"
           id="path200"
           d="m 552.5114,142.93469 11.5086,0.2854 -0.28,12.62 -11.51,-0.28 0.28,-12.63 z" />
        <path
           style="opacity:1;fill:none;stroke:#000000;stroke-width:0.354"
           inkscape:connector-curvature="0"
           id="path202"
           d="m 557.56229,168.75039 1.68771,0.5597 q 3.29,0.35 4.77,2.53 l 1.68,4.49 -0.56,1.68 -0.56,1.68 -1.97,2.53 -2.8,1.12 -2.81,0.56 q -3.63,-0.86 -5.33,-3.64 -1.44,-1.65 -1.12,-5.06 0.86,-3.62 3.65,-5.33 l 3.36,-1.12 z" />
        <path
           style="opacity:1;fill:none;stroke:#000000;stroke-width:0.354"
           inkscape:connector-curvature="0"
           id="path204"
           d="m 512.10427,171.55639 q 5.85573,-0.8063 7.57573,2.5237 2.15,1.78 1.68,6.18 l -2.52,4.2 -5.05,2.25 q -4.14,-0.63 -5.89,-3.65 -1.78,-1.87 -1.13,-6.17 l 3.65,-4.77 1.68,-0.56 z" />
        <path
           style="opacity:1;fill:none;stroke:#000000;stroke-width:0.354"
           inkscape:connector-curvature="0"
           id="path206"
           d="m 552.5114,195.12729 11.5086,0.2828 -0.28,12.63 -11.51,-0.29 0.28,-12.62 z" />
        <path
           style="opacity:1;fill:none;stroke:#000000;stroke-width:0.354"
           inkscape:connector-curvature="0"
           id="path210"
           d="m 324.66007,235.53439 q 3.08993,-0.8443 3.92993,0.5657 l 4.21,3.08 1.12,3.93 -0.56,1.68 -1.97,3.65 q -1.96,2.53 -7.29,1.69 l -4.21,-3.09 -0.56,-1.68 -0.56,-3.93 4.21,-5.33 1.68,-0.57 z" />
        <path
           style="opacity:1;fill:none;stroke:#000000;stroke-width:0.354"
           inkscape:connector-curvature="0"
           id="path214"
           d="m 362.82237,257.42159 114.76763,0.2785 -0.28,10.95 -114.77,-0.28 0.28,-10.95 z" />
      </g>
    </g>
  </g>
  <g
     id="g4516"
     transform="translate(317.67903,786.28602)">
    <path
       style="opacity:1;fill:none;stroke:#000000;stroke-width:0.354"
       inkscape:connector-curvature="0"
       id="path152"
       d="m 736.02712,-202.77071 45.46288,8e-4 11.78,0 4.21,0.28 2.81,0.56 9.82,1.97 30.58,5.89 7.58,1.4 10.66,3.93 30.03,12.07 11.5,4.77 4.49,2.24 6.46,4.21 26.37,17.4 8.14,5.33 6.17,5.05 10.95,10.94 17.96,18.52 7.57,8.14 3.93,6.170002 15.99,25.54 5.06,7.86 q 3.56,4.29 4.77,10.94 l 10.1,28.06 3.65,9.82 1.12,3.9299996 0.56,3.93 1.12,10.1 4.49,38.1600004 -0.56,2.25 -1.12,9.54 -2.81,24.69 -1.12,11.23 -1.4,5.33 -3.65,9.819998 -10.1,28.62 q -1.44,6.42 -4.49,11.22 l -3.93,6.18 -14.87,23.29 -5.34,8.13 -4.77,6.46 -7.57,7.58 -28.34,28.9 -34.52,22.73 -8.7,5.89 -6.73,3.37 -12.91,5.05 -27.5,11.22 -9.82,3.65 -8.42,1.68 -29.18,5.62 -13.19,2.52 -5.05,0.56 -11.78,0 -45.46,0 -40.13,-8.14 0.28,-46.3 10.94,2.53 24.42,4.77 8.98,1.68 4.49,0.56 8.98,0 36.47,0 32.55,-6.73 8.7,-1.4 8.14,-2.53 26.94,-10.66 8.42,-3.93 5.61,-2.81 8.14,-5.33 19.92,-13.19 q 8.45,-4.45 14.03,-11.78 l 23.85,-23.85 17.12,-27.22 4.49,-6.74 2.52,-5.33 2.81,-7.29 8.14,-23.289998 3.08,-9.26 0.57,-7.86 3.92,-33.67 -0.56,-2.81 -0.56,-4.49 -2.52,-22.17 -0.85,-7.0100004 -0.56,-3.93 -1.12,-3.37 -2.81,-7.85 -8.41,-23.5699996 q -0.84,-5.06 -3.37,-8.42 l -6.17,-8.98 -11.79,-18.52 q -4.26,-9.21 -12.07,-14.87 l -24.13,-24.140002 -27.5,-17.96 -6.73,-4.48 -3.93,-2.25 -5.61,-2.24 -20.77,-8.42 -10.66,-3.93 -4.77,-1.97 -7.58,-1.4 -23.85,-4.77 -8.98,-1.68 -5.89,-0.84 -8.98,0 -37.04,0 -33.67,6.73 -7.3,1.12 -5.05,1.69 -0.28,-46.3 40.13,-8.14 z" />
    <path
       style="opacity:1;fill:none;stroke:#000000;stroke-width:0.354"
       inkscape:connector-curvature="0"
       id="path154"
       d="m 764.08763,-183.12841 3.93237,0 1.68,0.56 3.09,2.53 q 1.68,1.68 1.12,5.61 l -3.09,4.77 -1.68,0.56 -3.93,0.56 q -3.23,-0.7 -4.77,-3.08 -1.87,-2.06 -1.12,-6.74 l 3.65,-4.21 1.12,-0.56 z" />
    <path
       style="opacity:1;fill:none;stroke:#000000;stroke-width:0.354"
       inkscape:connector-curvature="0"
       id="path160"
       d="m 725.92534,-181.44471 19.92466,0.2848 -0.28,10.94 -19.93,-0.28 0.29,-10.94 z" />
    <path
       style="opacity:1;fill:none;stroke:#000000;stroke-width:0.354"
       inkscape:connector-curvature="0"
       id="path162"
       d="m 787.09724,-181.44471 20.48276,0.2848 -0.28,10.94 -20.48,-0.28 0.28,-10.94 z" />
    <path
       style="opacity:1;fill:none;stroke:#000000;stroke-width:0.354"
       inkscape:connector-curvature="0"
       id="path212"
       d="m 765.21005,255.73799 q 5.05995,-0.2979 7.01995,2.5221 2.31,1.62 1.68,6.18 -0.7,3.22 -3.09,4.77 -1.87,1.77 -6.17,1.12 l -4.77,-3.65 -0.56,-5.61 3.08,-4.21 2.81,-1.12 z" />
    <path
       style="opacity:1;fill:none;stroke:#000000;stroke-width:0.354"
       inkscape:connector-curvature="0"
       id="path216"
       d="m 725.92534,257.42159 19.92466,0.2785 -0.28,10.95 -19.93,-0.28 0.29,-10.95 z" />
    <path
       style="opacity:1;fill:none;stroke:#000000;stroke-width:0.354"
       inkscape:connector-curvature="0"
       id="path218"
       d="m 787.09724,257.42159 20.48276,0.2785 -0.28,10.95 -20.48,-0.28 0.28,-10.95 z" />
  </g>
  <path
     d="m 723.27425,27.597248 11.5094,0.2842 0.28,10.94 12.62,0.28 -0.28,10.94 -7.57,0.28 0.28,14.32 7.57,0.28 0.28,9.26 14.88,-0.28 0.28,-9.26 7.01,-0.28 -0.28,-14.32 -7.01,-0.28 0.28,-10.94 12.62,-0.28 0.28,-10.94 10.95,0.28 -0.28,10.94 -1.41,0.28 0.28,14.87 18.24,0.28 -0.28,11.51 -18.24,0.28 0.28,70.990002 1.41,0.28 -0.28,10.95 -10.95,-0.28 -0.28,-10.95 -12.62,-0.28 0.28,-10.94 7.01,-0.28 -0.28,-13.75001 -7.01,-0.28 -0.28,-9.82 -14.88,0.28 -0.28,9.82 -7.57,0.28 0.28,13.75001 7.57,0.28 -0.28,10.94 -12.62,0.28 -0.29,10.95 -11.5,-0.28 0.28,-10.95 1.96,-0.28 -0.28,-97.930002 -1.96,-0.28 0.28,-10.94 z"
     id="path224"
     inkscape:connector-curvature="0"
     style="opacity:1;fill:none;stroke:#000000;stroke-width:0.354" />
  <path
     d="m 0.28060508,330.94009 1.95939492,0.28 -0.28,97.93 -1.96,-0.28 0.28,-97.93 z"
     id="path226"
     inkscape:connector-curvature="0"
     style="opacity:1;fill:none;stroke:#000000;stroke-width:0.354" />
  <path
     d="m 510.62834,13.225632 10.94188,0.2792 0.28,11.51 12.63,0.28 -0.28,10.94 -7.58,0.28 0.28,13.75 7.58,0.28 0.28,9.82 14.87,-0.28 0.28,-9.82 7.58,-0.28 -0.28,-13.75 -7.58,-0.28 0.28,-10.94 12.63,-0.28 0.28,-11.51 10.94,0.28 -0.28,11.51 -1.4,0.28 0.28,97.369998 1.4,0.28 -0.28,11.5 -10.94,-0.28 -0.28,-11.5 -12.63,-0.28 0.28,-10.95 7.58,-0.28 -0.28,-13.749998 -7.58,-0.28 -0.28,-9.82 -14.87,0.28 -0.28,9.82 -7.58,0.28 0.28,13.749998 7.58,0.28 -0.28,10.95 -12.63,0.28 -0.28,11.5 -10.94,-0.28 0.28,-11.5 1.4,-0.28 -0.28,-70.999998 -18.8,-0.28 0.28,-10.94 18.8,-0.28 -0.28,-14.87 -1.4,-0.28 0.28,-11.51 z"
     id="path244"
     inkscape:connector-curvature="0"
     style="opacity:1;fill:none;stroke:#000000;stroke-width:0.354" />
  <path
     d="m 268.53906,539.14909 21.89094,0 q 5.68,-0.91 8.98,0.56 l 6.45,1.4 13.19,2.53 q 1.64,1.44 5.05,1.12 l 6.17,2.81 12.35,5.61 q 10.23,2.96 16.84,9.54 l 8.97,6.73 q 6.3,3.25 10.39,8.7 l 9.82,10.95 q 4.82,4.15 7.57,10.38 l 7.3,12.35 3.65,6.45 2.8,7.86 5.05,15.71 q 1.93,3.4 1.97,8.7 l 1.12,10.1 0.56,5.05 q -0.56,3.37 1.69,3.93 l 4.77,4.77 0.84,0.28 0.28,9.82 10.94,0.28 -0.28,10.95 -10.94,0.28 -0.28,12.62 -10.95,-0.28 -0.28,-7.57 -14.31,0.28 -0.28,7.57 -9.26,0.29 0.28,14.87 9.26,0.28 0.28,7.57 14.31,-0.28 0.28,-7.57 10.95,0.28 0.28,12.62 10.94,0.29 -0.28,10.94 -10.94,0.28 -0.28,9.26 -38.44,4.21 -14.32,15.99 -39.56,32.27 27.5,23.01 q 9.58,6.7 17.4,15.16 l 9.26,10.38 26.65,3.08 8.14,0.85 q 2.67,-0.42 3.65,0.84 l 0.28,9.26 10.94,0.28 -0.28,10.94 -10.94,0.28 -0.28,12.63 -10.95,-0.28 -0.28,-7.58 -14.31,0.28 -0.28,7.58 -9.26,0.28 0.28,14.87 9.26,0.28 0.28,7.02 14.31,-0.28 0.28,-7.02 10.95,0.28 0.28,12.63 10.94,0.28 -0.28,10.94 -10.94,0.29 0,6.73 q 0.56,3.09 -1.4,3.65 l -5.06,5.05 -0.84,0.28 -1.4,14.87 q -0.04,8.66 -3.09,14.31 l -5.05,15.15 -1.68,5.62001 -3.37,5.05 -7.58,13.19 q -2.94,7.15 -8.69,11.5 l -14.31,16 -16.28,11.78 -4.21,3.09 -7.58,3.65 -12.34,5.61 -5.05,2.24 -7.02,1.97 -14.31,3.08 -5.05,1.13 q -3.51,1.54 -9.54,0.56 l -25.25,0 -17.4,-3.93 -5.61,-1.12 q -5.32,-0.86 -8.98,-3.37 l -12.35,-5.61 q -6.51,-1.63 -10.66,-5.62 l -21.61,-15.99 -14.03,-15.71 q -4.17,-3.69 -6.45,-9.26 l -7.02,-12.07 q -4.58,-5.8 -6.45,-14.31001 l -4.21,-13.19 -2.25,-7.86 -0.84,-7.01 -1.4,-13.19 -0.56,-11.22 0.56,-1.69 0.28,-3.65 1.12,-10.66 0.84,-7.01 1.69,-6.18 7.29,-22.45 12.35,-21.32 38.16,-58.37 -38.16,-57.8 -9.54,-16.84 q -3.7,-4.44 -5.05,-11.22 l -4.21,-13.19 -2.53,-8.7 -0.84,-7.01 -1.4,-13.19 -0.56,-11.23 0.56,-1.68 0.28,-3.65 1.12,-10.66 0.84,-7.02 1.69,-6.17 5.33,-16.56 q 1.26,-6.31 4.77,-10.38 l 6.17,-11.22 2.81,-5.05 q 3.28,-5.98 8.42,-10.11 l 13.75,-15.43 17.11,-12.06 6.18,-4.49 5.89,-2.53 14.31,-6.45 7.01,-2.53 4.21,-0.84 21.05,-4.77 z"
     id="path260"
     inkscape:connector-curvature="0"
     style="opacity:1;fill:none;stroke:#000000;stroke-width:0.354" />
  <path
     d="m 270.7839,574.50529 18.5161,0 6.46,0.28 5.61,1.12 13.47,2.8 q 3.86,0.07 5.89,1.97 l 11.23,5.05 7.01,3.09 4.77,3.08 9.54,6.74 9.82,9.26 q 6.29,5.49 10.67,12.91 l 6.45,10.94 q 3.55,3.74 4.77,9.82 l 3.93,11.79 1.68,5.61 0.84,7.01 0.85,8.14 0.56,9.54 -0.56,1.68 -0.28,3.65 -0.29,5.33 q -1.54,0.99 -0.56,4.49 l -2.24,8.42 -3.93,11.79 -1.68,5.05 -3.09,4.77 -6.45,10.94 -6.18,7.86 -12.06,12.63 -12.35,8.41 q -3.34,3.4 -8.42,5.05 l -10.94,4.78 -5.89,2.52 -4.49,1.12 -14.03,2.81 -4.21,0.84 -5.9,0.28 -17.95,0 -17.96,-3.93 -4.49,-1.12 -6.18,-2.24 -8.41,-3.93 -5.06,-2.25 -3.36,-2.24 -11.23,-7.86 q -4.91,-2.38 -8.13,-6.45 l -9.83,-10.95 q -3.82,-3.19 -5.89,-8.13 l -5.33,-9.26 q -3.08,-3.66 -4.21,-9.26 l -3.93,-11.79 q -2.1,-3.23 -1.96,-8.7 l -1.4,-12.63 -0.57,-7.29 0.57,-2.81 0.84,-7.57 0.28,-5.34 0.56,-2.24 0.56,-3.37 1.4,-3.65 4.21,-12.62 1.69,-4.49 3.36,-5.61 5.62,-8.98 3.36,-5.05 3.37,-3.93 11.5,-12.07 14.32,-9.82 5.33,-3.09 6.17,-2.8 15.15,-6.18 6.18,-1.12 12.9,-2.8 z"
     id="path262"
     inkscape:connector-curvature="0"
     style="opacity:1;fill:none;stroke:#000000;stroke-width:0.354" />
  <g
     id="g4533"
     transform="translate(-65.726695,277.51271)">
    <path
       style="opacity:1;fill:none;stroke:#000000;stroke-width:0.354"
       inkscape:connector-curvature="0"
       id="path220"
       d="m 737.14954,292.77779 43.77046,0 11.23,0 4.21,0.28 2.8,0.56 13.19,2.53 30.31,5.61 5.89,1.4 4.77,1.4 8.7,3.65 33.39,13.19 10.1,5.05 6.46,4.21 24.69,16.27 7.58,4.77 q 7.85,4.78 13.18,12.07 l 29.75,29.75 21.61,33.95 4.77,8.14 2.52,4.2 2.53,7.58 10.38,28.34 4.77,14.87 0.28,4.21 0.84,5.33 1.69,16.28 2.8,23.57 -0.56,2.81 -0.84,7.01 -3.09,26.66 -1.12,11.78 -3.93,12.91 -10.1,27.5 -2.81,7.86 -3.36,7.29 -6.18,8.98 -14.31,22.73 q -5.77,11.63 -15.71,19.08 l -28.62,29.19 -33.68,21.88 -8.98,6.18 -7.01,3.65 -12.35,5.05 -26.37,10.66 -7.02,3.09 -12.91,2.8 -31.99,6.18 -10.38,1.96 -6.45,0.84 -10.67,0 -42.65,0 -39.28,-7.86 -11.79,-2.24 q -4.81,-0.24 -7.86,-2.25 l -8.41,-3.36 -8.7,-4.21 -14.59,-8.98 -47.71,-34.23 -24.69,-27.5 -10.94,-13.19 -6.18,-10.67 -14.03,-24.69 q -4.88,-6.06 -6.73,-15.15 l -8.42,-25.82 -3.37,-10.66 q -1.93,-3.4 -1.96,-8.7 l -1.12,-10.66 -3.93,-37.6 0.56,-2.81 0.56,-5.61 2.81,-26.94 1.12,-12.35 1.4,-5.89 2.81,-8.42 9.26,-28.34 2.24,-6.73 q 0.14,-3.23 1.97,-4.77 l 3.36,-5.61 14.88,-25.54 q 5.55,-12.96 15.43,-21.61 l 26.94,-29.74 46.58,-33.11 13.19,-8.14 q 2.66,-2.67 7.01,-3.65 l 9.54,-3.93 6.46,-1.96 11.22,-2.24 41.25,-8.14 z" />
    <path
       style="opacity:1;fill:none;stroke:#000000;stroke-width:0.354"
       inkscape:connector-curvature="0"
       id="path222"
       d="m 697.30362,314.10379 138.89638,0.2763 -0.28,10.95 -63.69,0.28 -0.29,10.94 -10.94,-0.28 -0.28,-10.94 -63.7,-0.28 0.28,-10.95 z" />
    <path
       style="opacity:1;fill:none;stroke:#000000;stroke-width:0.354"
       inkscape:connector-curvature="0"
       id="path228"
       d="m 764.64884,348.33759 q 3.51116,-0.9775 4.49116,0.5625 l 3.65,2.52 q 1.52,1.85 1.12,5.62 l -2.53,4.21 q -1.77,2.15 -6.17,1.68 -3.23,-0.7 -4.77,-3.09 -1.78,-1.87 -1.12,-6.17 l 3.65,-4.77 1.68,-0.56 z" />
    <path
       style="opacity:1;fill:none;stroke:#000000;stroke-width:0.354"
       inkscape:connector-curvature="0"
       id="path230"
       d="m 849.95278,358.43939 21.04722,0.2807 -0.28,31.71 -21.05,-0.28 0.28,-31.71 z" />
    <path
       style="opacity:1;fill:none;stroke:#000000;stroke-width:0.354"
       inkscape:connector-curvature="0"
       id="path232"
       d="m 899.33927,374.71449 10.94073,0.2756 -0.28,12.63 -10.94,-0.28 0.28,-12.63 z" />
    <path
       style="opacity:1;fill:none;stroke:#000000;stroke-width:0.354"
       inkscape:connector-curvature="0"
       id="path234"
       d="m 761.28158,375.83689 10.94842,0.2832 -0.29,13.19 -10.94,-0.28 0.28,-13.19 z" />
    <path
       style="opacity:1;fill:none;stroke:#000000;stroke-width:0.354"
       inkscape:connector-curvature="0"
       id="path236"
       d="m 902.14532,399.40779 3.92468,0 1.69,0.56 2.52,1.96 q 1.85,1.81 1.69,5.62 l -2.53,4.77 -3.65,1.4 -2.52,0.28 q -3.23,-0.7 -4.77,-3.09 -1.87,-2.06 -1.12,-6.73 l 1.4,-2.53 3.37,-2.24 z" />
    <path
       style="opacity:1;fill:none;stroke:#000000;stroke-width:0.354"
       inkscape:connector-curvature="0"
       id="path238"
       d="m 975.66386,413.43799 10.94614,0.2821 -0.28,10.94 -10.95,-0.28 0.28,-10.94 z" />
    <path
       style="opacity:1;fill:none;stroke:#000000;stroke-width:0.354"
       inkscape:connector-curvature="0"
       id="path240"
       d="m 899.33927,426.90709 10.94073,0.283 -0.28,13.19 -10.94,-0.28 0.28,-13.19 z" />
    <path
       style="opacity:1;fill:none;stroke:#000000;stroke-width:0.354"
       inkscape:connector-curvature="0"
       id="path242"
       d="m 979.03112,438.13129 3.36888,0 1.68,0.56 3.09,2.53 q 1.78,1.87 1.12,6.17 l -3.09,4.21 q -1.68,1.68 -5.61,1.12 -3.22,-0.7 -4.77,-3.08 -1.78,-1.87 -1.12,-6.18 l 3.65,-4.77 1.68,-0.56 z" />
    <path
       style="opacity:1;fill:none;stroke:#000000;stroke-width:0.354"
       inkscape:connector-curvature="0"
       id="path246"
       d="m 975.66386,465.63059 10.94614,0.2795 -0.28,11.51 -10.95,-0.28 0.28,-11.51 z" />
    <path
       style="opacity:1;fill:none;stroke:#000000;stroke-width:0.354"
       inkscape:connector-curvature="0"
       id="path248"
       d="m 551.95019,531.85339 q 4.62981,-0.1433 6.44981,2.5267 l 1.13,2.24 0.56,3.93 q -0.7,3.23 -3.09,4.77 -2.06,1.87 -6.73,1.12 l -4.21,-3.64 -0.56,-5.62 2.52,-3.64 3.93,-1.69 z" />
    <path
       style="opacity:1;fill:none;stroke:#000000;stroke-width:0.354"
       inkscape:connector-curvature="0"
       id="path250"
       d="m 1004.2856,531.85339 q 5.1444,-0.093 7.0144,3.0867 1.78,1.87 1.12,6.17 -0.77,3.44 -3.64,4.77 -1.78,1.31 -5.62,0.56 l -4.21,-3.08 q -1.52,-1.85 -1.12,-5.61 l 1.97,-3.65 4.49,-2.25 z" />
    <path
       style="opacity:1;fill:none;stroke:#000000;stroke-width:0.354"
       inkscape:connector-curvature="0"
       id="path252"
       d="m 521.08363,533.53699 10.94637,0.2831 -0.28,10.94 -10.95,-0.28 0.28,-10.94 z" />
    <path
       style="opacity:1;fill:none;stroke:#000000;stroke-width:0.354"
       inkscape:connector-curvature="0"
       id="path254"
       d="m 573.27617,533.53699 11.50383,0.2831 -0.28,10.94 -11.5,-0.28 0.28,-10.94 z" />
    <path
       style="opacity:1;fill:none;stroke:#000000;stroke-width:0.354"
       inkscape:connector-curvature="0"
       id="path256"
       d="m 973.41901,533.53699 11.50099,0.2831 -0.28,10.94 -11.5,-0.28 0.28,-10.94 z" />
    <path
       style="opacity:1;fill:none;stroke:#000000;stroke-width:0.354"
       inkscape:connector-curvature="0"
       id="path258"
       d="m 1026.1728,533.53699 10.9472,0.2831 -0.28,10.94 -10.95,-0.28 0.28,-10.94 z" />
    <path
       style="opacity:1;fill:none;stroke:#000000;stroke-width:0.354"
       inkscape:connector-curvature="0"
       id="path264"
       d="m 975.66386,601.44339 10.94614,0.2767 -0.28,10.95 -10.95,-0.28 0.28,-10.95 z" />
    <path
       style="opacity:1;fill:none;stroke:#000000;stroke-width:0.354"
       inkscape:connector-curvature="0"
       id="path266"
       d="m 979.03112,626.13669 q 4.20888,-0.8466 5.88888,0.8434 l 2.81,2.8 0.56,5.06 -2.52,4.2 q -1.81,1.85 -5.62,1.69 -3.71,-0.49 -5.33,-3.09 -1.6,-2.04 -1.12,-6.17 l 3.65,-4.77 1.68,-0.56 z" />
    <path
       style="opacity:1;fill:none;stroke:#000000;stroke-width:0.354"
       inkscape:connector-curvature="0"
       id="path268"
       d="m 899.33927,638.48329 10.94073,0.2768 -0.28,12.63 -10.94,-0.28 0.28,-12.63 z" />
    <path
       style="opacity:1;fill:none;stroke:#000000;stroke-width:0.354"
       inkscape:connector-curvature="0"
       id="path270"
       d="m 975.66386,653.63599 10.94614,0.2841 -0.28,10.94 -10.95,-0.28 0.28,-10.94 z" />
    <path
       style="opacity:1;fill:none;stroke:#000000;stroke-width:0.354"
       inkscape:connector-curvature="0"
       id="path272"
       d="m 902.14532,664.86019 q 6.46468,-0.5701 8.69468,3.0899 l 0.57,1.68 0.56,3.93 -4.21,5.33 -5.05,0.56 -4.77,-3.65 q -1.41,-1.96 -0.56,-6.17 l 1.96,-3.09 2.81,-1.68 z" />
    <path
       style="opacity:1;fill:none;stroke:#000000;stroke-width:0.354"
       inkscape:connector-curvature="0"
       id="path274"
       d="m 899.33927,690.67579 10.94073,0.2843 -0.28,13.18 -9.82,0.29 -0.28,9.82 -10.94,-0.28 0.28,-12.63 9.82,-0.28 0.28,-10.38 z" />
    <path
       style="opacity:1;fill:none;stroke:#000000;stroke-width:0.354"
       inkscape:connector-curvature="0"
       id="path276"
       d="m 666.99827,699.65519 q 5.08173,-0.5851 7.01173,1.9649 2.55,1.94 2.25,6.73 l -2.53,4.21 q -1.96,2.25 -6.73,1.69 l -4.21,-3.09 q -2.02,-1.63 -1.12,-6.17 l 3.08,-4.21 2.25,-1.12 z" />
    <path
       style="opacity:1;fill:none;stroke:#000000;stroke-width:0.354"
       inkscape:connector-curvature="0"
       id="path278"
       d="m 866.78909,699.65519 q 4.45091,-0.5251 6.45091,1.4049 2.45,2.04 2.81,6.17 l -2.53,5.33 q -1.96,2.25 -6.73,1.69 -3.44,-0.78 -4.77,-3.65 l -1.12,-4.49 q 0.86,-3.63 3.64,-5.33 l 2.25,-1.12 z" />
    <path
       style="opacity:1;fill:none;stroke:#000000;stroke-width:0.354"
       inkscape:connector-curvature="0"
       id="path280"
       d="m 637.25413,701.33879 10.94587,0.2813 -0.28,12.63 -10.95,-0.28 0.28,-12.63 z" />
    <path
       style="opacity:1;fill:none;stroke:#000000;stroke-width:0.354"
       inkscape:connector-curvature="0"
       id="path282"
       d="m 689.44668,701.33879 11.50332,0.2813 -0.28,12.63 -11.5,-0.28 0.28,-12.63 z" />
    <path
       style="opacity:1;fill:none;stroke:#000000;stroke-width:0.354"
       inkscape:connector-curvature="0"
       id="path284"
       d="m 837.04495,701.33879 10.94505,0.2813 -0.28,12.63 -10.95,-0.28 0.28,-12.63 z" />
    <path
       style="opacity:1;fill:none;stroke:#000000;stroke-width:0.354"
       inkscape:connector-curvature="0"
       id="path286"
       d="m 690.00789,752.97019 153.49211,0.2799 -0.28,11.51 -153.49,-0.29 0.28,-11.5 z" />
  </g>
  <path
     d="m 270.7839,834.34559 18.5161,0 6.46,0.28 5.61,1.12 12.07,2.52 q 4.64,0.13 7.29,2.25 l 11.23,5.05 7.01,3.09 4.77,3.08 9.54,6.74 9.82,9.26 5.33,5.89 q 3.96,3.34 6.18,8.42 l 5.61,9.54 q 3.55,3.74 4.77,9.82 l 3.93,11.79 1.68,5.61 0.84,7.01 0.85,7.58 0.56,10.1 -0.56,2.81 -0.85,7.57 -0.84,7.02 -1.68,6.17 -3.93,11.79 -1.68,5.05 -3.09,4.77 -6.45,10.94 -6.18,7.86001 -12.06,12.63 -12.35,8.41 q -3.34,3.4 -8.42,5.06 l -10.94,4.77 -5.89,2.52 -3.65,0.84 -14.87,3.09 -4.21,0.84 -5.9,0.28 -17.95,0 -16.56,-3.65 -6.74,-1.68 -3.92,-1.68 -11.79,-5.05 q -4.07,-0.99 -6.45,-3.65 l -12.63,-8.7 -6.17,-5.05 -10.39,-11.51 -5.05,-6.73001 -5.33,-9.26 q -3.67,-4.18 -5.05,-10.66 l -3.93,-11.79 q -2.1,-3.23 -1.96,-8.7 l -1.4,-12.63 -0.57,-7.29 0.57,-2.81 0.84,-7.57 0.28,-5.33 0.56,-2.25 0.56,-3.37 1.12,-3.93 4.21,-11.5 1.97,-5.33 3.36,-5.61 5.62,-8.98 3.36,-5.05 3.37,-3.93 11.5,-12.07 14.32,-9.82 5.33,-3.09 6.17,-2.8 9.82,-4.21 8.14,-2.53 16.27,-3.36 z"
     id="path288"
     inkscape:connector-curvature="0"
     style="opacity:1;fill:none;stroke:#000000;stroke-width:0.354" />
</svg>
