<svg width="2298" height="2298" version="1.1" xmlns="http://www.w3.org/2000/svg" ><path fill="none" stroke="rgb(0,0,0)" stroke-width="0.354" opacity="1" d="M 0.2806050777435303 0.0 L 2298.72 0.28 L 2298.44 2298.72 L 300.25 2298.44 L 319.61 2294.23 Q 326.2 2293.8 330.27 2290.86 L 345.42 2284.13 Q 352.46 2282.18 356.65 2277.39 L 370.12 2267.85 L 377.69 2261.4 L 387.8 2250.17 Q 393.93 2244.52 397.62 2236.42 L 404.07 2225.48 L 407.16 2220.15 L 409.12 2214.82 L 414.17 2199.1 L 415.86 2194.05 L 416.7 2190.4 L 416.98 2185.07 L 417.54 2183.39 L 417.82 2179.74 L 418.94 2169.64 L 425.96 2163.18 L 426.24 2153.92 L 437.18 2153.64 L 436.9 2142.7 L 425.96 2142.42 L 425.68 2129.79 L 414.73 2130.07 L 414.45 2137.09 L 400.14 2136.81 L 399.86 2129.79 L 390.6 2129.51 L 390.88 2114.64 L 400.14 2114.36 L 400.42 2106.78 L 414.73 2107.06 L 415.01 2114.64 L 425.96 2114.36 L 426.24 2101.73 L 437.18 2101.45 L 436.9 2090.51 L 425.96 2090.23 L 425.68 2080.97 L 399.02 2077.88 L 390.88 2077.04 Q 387.32 2077.52 386.39 2075.36 L 383.31 2072.27 L 372.36 2060.2 L 333.36 2027.93 L 377.13 1991.45 L 387.52 1979.39 L 394.81 1978.83 L 413.05 1976.86 L 421.19 1976.02 L 425.96 1975.18 L 426.24 1965.92 L 437.18 1965.64 L 436.9 1954.69 L 425.96 1954.41 L 425.68 1941.79 L 414.73 1942.07 L 414.45 1949.64 L 400.14 1949.36 L 399.86 1941.79 L 390.6 1941.51 L 390.88 1926.63 L 400.14 1926.35 L 400.42 1918.78 L 414.73 1919.06 L 415.01 1926.63 L 425.96 1926.35 L 426.24 1913.73 L 437.18 1913.45 L 436.9 1902.5 L 425.96 1902.22 L 425.68 1892.4 L 418.66 1885.95 L 417.54 1871.36 Q 416.0 1870.37 416.98 1866.87 L 414.17 1857.32 L 410.24 1844.42 L 407.44 1836.56 L 402.95 1829.26 L 396.21 1817.48 Q 393.55 1811.44 388.92 1807.38 L 372.92 1790.26 L 357.77 1779.6 Q 353.56 1775.11 347.11 1772.86 L 333.64 1766.69 L 328.87 1764.73 L 322.98 1762.76 L 319.33 1761.92 L 305.86 1759.11 L 299.41 1757.71 Q 296.11 1756.24 290.43 1757.15 L 268.54 1757.15 L 261.8 1758.83 L 247.77 1761.64 L 243.28 1762.76 L 236.55 1765.01 L 221.96 1771.74 L 216.35 1773.99 L 209.89 1778.76 L 196.14 1788.58 L 189.13 1794.47 L 175.66 1809.62 L 170.89 1816.08 L 163.03 1830.11 L 159.66 1835.72 L 156.86 1843.01 L 151.53 1859.57 L 149.84 1865.18 L 149.28 1872.48 L 148.72 1875.28 L 147.6 1885.95 L 147.04 1896.61 L 147.6 1898.29 L 147.6 1902.22 L 148.16 1905.03 L 149.28 1914.57 L 150.4 1922.99 L 152.37 1928.88 L 156.58 1941.51 Q 157.29 1947.53 160.51 1951.05 L 169.49 1966.76 L 174.54 1975.18 L 181.55 1986.12 L 209.33 2027.93 L 171.17 2086.3 L 161.91 2102.29 Q 158.47 2106.43 157.14 2112.68 L 152.65 2126.14 L 150.68 2132.6 L 149.56 2137.65 L 149.28 2142.98 L 148.72 2145.79 L 147.6 2156.45 L 147.04 2167.11 L 147.6 2168.8 L 147.6 2172.73 L 148.16 2175.53 L 149.28 2185.07 L 150.4 2193.49 L 152.09 2198.54 L 156.02 2211.45 L 160.23 2221.83 L 168.36 2235.58 L 171.73 2241.19 L 175.94 2247.09 L 192.21 2265.04 L 211.86 2279.07 L 217.47 2282.44 L 221.96 2284.69 L 234.87 2290.3 Q 238.53 2292.81 243.85 2293.67 L 248.9 2294.79 L 266.57 2298.44 L 0.28 2298.72 L 0.0 1717.58 L 18.8 1717.3 L 19.08 1788.3 L 17.4 1788.86 L 17.68 1800.36 L 28.62 1800.08 L 28.9 1788.58 L 41.53 1788.3 L 41.25 1777.35 L 33.67 1777.07 L 33.95 1763.32 L 41.53 1763.04 L 41.81 1753.22 L 56.68 1753.5 L 56.96 1763.32 L 64.54 1763.6 L 64.26 1777.35 L 56.68 1777.63 L 56.96 1788.58 L 69.59 1788.86 L 69.87 1800.36 L 80.81 1800.08 L 80.53 1788.58 L 79.13 1788.3 L 79.41 1690.93 L 80.81 1690.65 L 80.53 1679.14 L 69.59 1679.42 L 69.31 1690.93 L 56.68 1691.21 L 56.96 1702.15 L 64.54 1702.43 L 64.26 1716.18 L 56.68 1716.46 L 56.4 1726.28 L 41.53 1726.0 L 41.25 1716.18 L 33.67 1715.9 L 33.95 1702.15 L 41.53 1701.87 L 41.25 1690.93 L 28.62 1690.65 L 28.34 1679.14 L 17.4 1679.42 L 17.68 1690.93 L 19.08 1691.21 L 18.8 1706.08 L 0.0 1705.8 L 0.28 1658.38 L 11.79 1658.1 L 12.07 1647.15 L 24.69 1646.87 L 24.41 1635.93 L 16.84 1635.65 L 17.12 1621.9 L 24.69 1621.62 L 24.97 1611.8 L 39.85 1612.08 L 40.13 1621.9 L 47.14 1622.18 L 46.86 1635.93 L 39.85 1636.21 L 40.13 1647.15 L 52.75 1647.43 L 53.03 1658.38 L 63.98 1658.1 L 63.7 1647.15 L 62.29 1646.87 L 62.57 1575.88 L 80.81 1575.6 L 80.53 1564.09 L 62.29 1563.81 L 62.57 1548.94 L 63.98 1548.66 L 63.7 1537.72 L 52.75 1538.0 L 52.47 1548.94 L 39.85 1549.22 L 40.13 1560.16 L 47.14 1560.44 L 46.86 1574.76 L 39.85 1575.04 L 39.57 1584.3 L 24.69 1584.02 L 24.41 1574.76 L 16.84 1574.48 L 17.12 1560.16 L 24.69 1559.88 L 24.41 1548.94 L 11.79 1548.66 L 11.5 1537.72 L 0.0 1537.44 L 0.28 1292.47 L 19.08 1292.75 L 18.8 1363.74 L 17.4 1364.02 L 17.68 1374.96 L 28.62 1374.68 L 28.9 1363.74 L 41.53 1363.46 L 41.25 1352.52 L 33.67 1352.24 L 33.95 1338.49 L 41.53 1338.21 L 41.81 1328.38 L 56.68 1328.67 L 56.96 1338.49 L 64.54 1338.77 L 64.26 1352.52 L 56.68 1352.8 L 56.96 1363.74 L 69.59 1364.02 L 69.87 1374.96 L 80.81 1374.68 L 80.53 1363.74 L 79.13 1363.46 L 79.41 1266.09 L 80.81 1265.81 L 80.53 1254.3 L 69.59 1254.59 L 69.31 1266.09 L 56.68 1266.37 L 56.96 1277.31 L 64.54 1277.59 L 64.26 1291.34 L 56.68 1291.63 L 56.4 1301.45 L 41.53 1301.17 L 41.25 1291.34 L 33.67 1291.06 L 33.95 1277.31 L 41.53 1277.03 L 41.25 1266.09 L 28.62 1265.81 L 28.34 1254.3 L 17.4 1254.59 L 17.68 1266.09 L 19.08 1266.37 L 18.8 1281.24 L 0.0 1280.96 L 0.28 0.0 Z" /><path fill="none" stroke="rgb(0,0,0)" stroke-width="0.354" opacity="1" d="M 1181.066772222519 0.5612101554870605 L 1188.08 0.84 Q 1191.85 0.44 1193.41 2.24 L 1200.43 6.45 L 1203.8 11.5 Q 1205.87 13.07 1206.04 16.56 L 1207.16 23.85 L 1206.04 29.46 L 1205.48 30.59 Q 1205.76 33.11 1203.8 33.39 L 1199.59 39.28 L 1193.41 42.65 Q 1192.63 44.11 1190.05 43.77 L 1185.56 44.34 L 1182.75 44.9 L 1176.02 42.65 L 1171.53 39.85 L 1166.76 35.64 L 1164.51 30.02 Q 1162.92 28.53 1163.39 24.97 L 1163.39 17.12 L 1167.04 8.98 L 1171.81 4.77 L 1175.74 2.53 L 1181.07 0.56 Z" /><path fill="none" stroke="rgb(0,0,0)" stroke-width="0.354" opacity="1" d="M 1183.3116128444672 15.152674198150635 Q 1186.82 14.17 1187.8 15.71 L 1190.33 17.12 Q 1192.27 19.1 1192.57 22.73 L 1190.05 28.06 L 1187.8 29.18 Q 1186.82 30.73 1183.31 29.74 L 1179.1 27.22 L 1177.98 24.97 L 1177.42 21.05 L 1181.63 15.71 L 1183.31 15.15 Z" /><path fill="none" stroke="rgb(0,0,0)" stroke-width="0.354" opacity="1" d="M 785.9748227596283 44.33560228347778 L 793.83 45.46 Q 795.94 45.04 796.36 46.3 L 800.29 48.54 L 803.65 50.79 Q 804.07 52.61 806.74 52.19 L 813.47 52.19 L 839.85 52.19 L 894.29 52.19 L 907.76 52.19 Q 916.22 51.86 919.82 56.4 L 922.35 60.05 L 923.47 64.54 L 923.75 68.75 L 921.79 74.08 L 918.98 78.01 L 915.61 79.69 Q 911.76 82.29 904.39 81.38 L 884.19 81.38 L 804.21 81.66 L 802.25 84.18 L 797.48 86.71 Q 796.38 88.41 793.27 88.11 L 784.85 88.67 L 779.52 86.71 Q 776.64 86.78 775.87 84.74 L 769.98 79.41 L 767.74 74.36 Q 766.15 72.86 766.61 69.31 L 766.61 61.45 L 769.42 55.84 L 771.1 53.03 L 774.75 49.39 Q 776.32 47.02 779.8 46.58 L 785.97 44.34 Z" /><path fill="none" stroke="rgb(0,0,0)" stroke-width="0.354" opacity="1" d="M 786.5360329151154 59.48827648162842 Q 792.39 58.68 794.11 62.01 Q 796.17 63.6 795.8 67.63 L 795.23 68.75 L 793.27 72.4 Q 791.66 74.71 787.1 74.08 Q 783.87 73.38 782.33 70.99 Q 780.55 69.12 781.2 64.82 Q 781.98 61.38 784.85 60.05 L 786.54 59.49 Z" /><path fill="none" stroke="rgb(0,0,0)" stroke-width="0.354" opacity="1" d="M 1181.066772222519 60.04948663711548 L 1188.08 60.33 Q 1191.85 59.93 1193.41 61.73 L 1200.43 65.94 L 1203.8 70.99 Q 1205.87 72.56 1206.04 76.04 L 1207.16 83.34 L 1206.04 88.95 L 1205.48 90.07 Q 1205.76 92.6 1203.8 92.88 L 1199.59 98.77 L 1193.41 102.14 Q 1192.63 103.6 1190.05 103.26 L 1185.56 103.82 L 1182.75 104.39 L 1176.02 102.14 L 1171.53 99.33 L 1166.76 95.13 L 1164.51 89.51 Q 1162.92 88.02 1163.39 84.46 L 1163.39 76.61 L 1167.04 68.47 L 1171.81 64.26 L 1175.74 62.01 L 1181.07 60.05 Z" /><path fill="none" stroke="rgb(0,0,0)" stroke-width="0.354" opacity="1" d="M 908.8798468112946 62.85553741455078 L 911.97 64.26 L 912.53 68.19 L 911.69 69.59 L 907.2 70.15 Q 905.19 69.08 905.23 65.94 L 907.2 63.42 L 908.88 62.86 Z" /><path fill="none" stroke="rgb(0,0,0)" stroke-width="0.354" opacity="1" d="M 1183.3116128444672 74.64095067977905 Q 1186.82 73.66 1187.8 75.2 L 1190.33 76.61 Q 1192.27 78.59 1192.57 82.22 L 1190.05 87.55 L 1187.8 88.67 Q 1186.82 90.21 1183.31 89.23 L 1179.1 86.71 L 1177.98 84.46 L 1177.42 80.53 L 1181.63 75.2 L 1183.31 74.64 Z" /><path fill="none" stroke="rgb(0,0,0)" stroke-width="0.354" opacity="1" d="M 1181.066772222519 119.5377631187439 L 1188.08 119.82 Q 1191.85 119.41 1193.41 121.22 L 1200.43 125.43 L 1203.8 130.48 Q 1205.87 132.05 1206.04 135.53 L 1207.16 142.83 L 1206.04 148.44 L 1205.48 149.56 Q 1205.76 152.09 1203.8 152.37 L 1199.59 158.26 L 1193.41 161.63 Q 1192.63 163.09 1190.05 162.75 L 1185.56 163.31 L 1182.75 163.87 L 1176.02 161.63 L 1171.53 158.82 L 1166.76 154.61 L 1164.51 149.0 Q 1162.92 147.5 1163.39 143.95 L 1163.39 136.09 L 1167.04 127.96 L 1171.81 123.75 L 1175.74 121.5 L 1181.07 119.54 Z" /><path fill="none" stroke="rgb(0,0,0)" stroke-width="0.354" opacity="1" d="M 785.4136126041412 126.27228498458862 L 790.46 126.83 L 793.55 127.11 L 797.2 128.52 L 803.65 132.16 L 804.49 133.57 L 882.5 133.57 L 905.51 133.57 L 911.12 134.13 Q 914.1 133.68 915.05 135.25 L 919.82 138.34 Q 924.21 142.09 923.75 150.68 Q 922.52 157.31 917.86 160.51 L 914.49 162.19 L 912.25 162.75 L 903.27 163.31 L 883.06 163.31 L 804.21 163.59 L 802.81 165.56 L 796.64 168.92 Q 795.68 170.5 792.71 170.05 L 785.41 170.61 L 779.52 168.64 Q 776.36 168.15 775.03 165.84 L 769.98 161.35 L 767.74 155.74 Q 766.24 154.43 766.61 151.25 L 766.61 143.39 L 770.82 134.69 L 778.68 128.52 L 785.41 126.27 Z" /><path fill="none" stroke="rgb(0,0,0)" stroke-width="0.354" opacity="1" d="M 1183.3116128444672 134.12922716140747 Q 1186.82 133.15 1187.8 134.69 L 1190.33 136.09 Q 1192.27 138.08 1192.57 141.71 L 1190.05 147.04 L 1187.8 148.16 Q 1186.82 149.7 1183.31 148.72 L 1179.1 146.2 L 1177.98 143.95 L 1177.42 140.02 L 1181.63 134.69 L 1183.31 134.13 Z" /><path fill="none" stroke="rgb(0,0,0)" stroke-width="0.354" opacity="1" d="M 787.6584532260895 140.8637490272522 L 789.34 141.42 L 791.59 141.99 L 794.67 144.51 Q 796.12 146.16 795.8 149.56 L 795.23 150.68 L 793.27 154.33 Q 791.0 155.99 787.1 156.02 Q 783.87 155.31 782.33 152.93 Q 780.46 150.87 781.2 146.2 L 782.61 143.67 L 787.66 140.86 Z" /><path fill="none" stroke="rgb(0,0,0)" stroke-width="0.354" opacity="1" d="M 908.3186366558075 144.79222011566162 Q 911.77 144.42 912.53 146.76 L 913.09 148.44 L 910.56 152.09 Q 906.49 152.79 905.79 150.12 L 905.23 147.88 L 907.2 145.35 L 908.32 144.79 Z" /><path fill="none" stroke="rgb(0,0,0)" stroke-width="0.354" opacity="1" d="M 1181.066772222519 179.02603960037231 L 1188.08 179.31 Q 1191.85 178.9 1193.41 180.71 L 1200.43 184.92 L 1203.8 189.97 Q 1205.87 191.54 1206.04 195.02 L 1207.16 202.32 L 1206.04 207.93 L 1205.48 209.05 Q 1205.76 211.58 1203.8 211.86 L 1199.59 217.75 L 1193.41 221.12 Q 1192.63 222.58 1190.05 222.24 L 1185.56 222.8 L 1182.75 223.36 L 1176.02 221.12 L 1171.53 218.31 L 1166.76 214.1 L 1164.51 208.49 Q 1162.92 206.99 1163.39 203.44 L 1163.39 195.58 L 1167.04 187.44 L 1171.81 183.24 L 1175.74 180.99 L 1181.07 179.03 Z" /><path fill="none" stroke="rgb(0,0,0)" stroke-width="0.354" opacity="1" d="M 1183.3116128444672 193.6175036430359 Q 1186.82 192.64 1187.8 194.18 L 1190.33 195.58 Q 1192.27 197.57 1192.57 201.19 L 1190.05 206.53 L 1187.8 207.65 Q 1186.82 209.19 1183.31 208.21 L 1179.1 205.68 L 1177.98 203.44 L 1177.42 199.51 L 1181.63 194.18 L 1183.31 193.62 Z" /><path fill="none" stroke="rgb(0,0,0)" stroke-width="0.354" opacity="1" d="M 785.4136126041412 208.20896768569946 L 792.15 208.77 Q 795.64 208.37 796.92 210.17 L 804.21 214.66 L 804.49 215.5 L 1023.93 215.5 L 1078.93 215.5 L 1095.76 215.5 L 1102.5 216.63 L 1107.27 219.71 L 1110.63 225.33 L 1111.76 230.94 L 1110.63 234.31 Q 1110.99 237.18 1109.23 237.95 L 1105.3 242.44 L 1101.94 244.13 L 1099.13 244.69 L 1091.83 245.25 L 1077.8 245.25 L 1022.24 245.25 L 858.93 245.25 L 818.53 245.25 L 808.42 245.25 Q 804.64 244.27 803.65 246.09 L 803.37 246.93 L 797.2 250.3 Q 795.25 252.28 791.03 251.98 L 785.41 252.54 L 780.08 250.58 Q 776.48 249.97 774.75 247.49 L 769.98 243.28 L 767.74 237.67 Q 766.24 236.36 766.61 233.18 L 766.61 225.33 L 769.42 219.15 L 771.94 215.5 L 775.59 212.42 Q 776.57 210.59 779.24 210.45 L 785.41 208.21 Z" /><path fill="none" stroke="rgb(0,0,0)" stroke-width="0.354" opacity="1" d="M 787.6584532260895 222.80043172836304 Q 791.45 222.94 793.55 224.76 Q 795.8 227.01 795.8 231.5 Q 795.09 234.73 792.71 236.27 L 789.9 237.39 L 787.66 237.95 L 782.33 234.87 Q 780.46 232.81 781.2 228.13 L 784.29 223.92 L 787.66 222.8 Z" /><path fill="none" stroke="rgb(0,0,0)" stroke-width="0.354" opacity="1" d="M 1095.7628285884857 226.72890281677246 Q 1098.43 226.31 1099.41 227.57 Q 1100.87 228.36 1100.53 230.94 L 1098.01 234.02 Q 1094.73 234.49 1093.8 232.62 L 1093.24 229.25 L 1094.64 227.29 L 1095.76 226.73 Z" /><path fill="none" stroke="rgb(0,0,0)" stroke-width="0.354" opacity="1" d="M 1181.066772222519 238.51431608200073 L 1188.08 238.79 Q 1191.85 238.39 1193.41 240.2 L 1200.43 244.41 L 1203.8 249.46 Q 1205.87 251.03 1206.04 254.51 L 1207.16 261.8 L 1206.04 267.42 L 1205.48 268.54 Q 1205.76 271.06 1203.8 271.35 L 1199.59 277.24 L 1193.41 280.61 Q 1192.63 282.06 1190.05 281.73 L 1185.56 282.29 L 1182.75 282.85 L 1176.02 280.61 L 1171.53 277.8 L 1166.76 273.59 L 1164.51 267.98 Q 1162.92 266.48 1163.39 262.93 L 1163.39 255.07 L 1167.04 246.93 L 1171.81 242.72 L 1175.74 240.48 L 1181.07 238.51 Z" /><path fill="none" stroke="rgb(0,0,0)" stroke-width="0.354" opacity="1" d="M 1183.3116128444672 253.1057801246643 Q 1186.82 252.12 1187.8 253.67 L 1190.33 255.07 Q 1192.27 257.06 1192.57 260.68 L 1190.05 266.01 L 1187.8 267.14 Q 1186.82 268.68 1183.31 267.7 L 1179.1 265.17 L 1177.98 262.93 L 1177.42 259.0 L 1181.63 253.67 L 1183.31 253.11 Z" /><path fill="none" stroke="rgb(0,0,0)" stroke-width="0.354" opacity="1" d="M 247.77428364753723 269.9420847892761 L 272.47 272.75 L 278.08 273.31 Q 280.61 272.75 281.17 274.15 L 286.22 276.96 L 309.79 290.99 L 324.1 310.91 L 326.9 314.84 L 328.59 318.77 L 329.99 325.78 L 335.04 348.79 L 329.99 371.8 L 328.59 378.26 Q 328.84 381.59 326.62 382.46 L 322.98 387.8 L 307.82 408.0 L 288.18 419.22 L 282.85 422.31 L 279.2 423.71 L 276.96 424.27 L 270.22 424.84 L 246.65 427.08 L 225.33 419.79 L 218.87 417.82 Q 215.93 417.4 214.66 415.3 L 209.05 410.24 L 191.93 394.81 L 181.83 372.36 L 179.59 367.31 L 178.46 363.38 L 178.46 357.21 L 178.46 332.52 L 187.44 312.87 L 190.53 305.86 Q 191.06 302.46 193.34 300.81 L 210.17 285.66 L 218.03 279.48 L 225.33 277.24 L 247.77 269.94 Z" /><path fill="none" stroke="rgb(0,0,0)" stroke-width="0.354" opacity="1" d="M 407.1579678058624 269.9420847892761 L 432.41 272.75 L 437.46 273.31 Q 440.64 272.94 441.95 274.43 L 447.0 277.8 L 468.61 289.87 L 482.92 309.79 L 486.57 314.56 Q 488.55 316.22 488.53 319.89 L 489.66 324.94 L 493.3 342.06 L 494.15 346.27 L 494.43 350.48 L 489.66 372.08 L 488.25 378.54 Q 487.05 383.79 483.48 386.67 L 467.77 408.0 L 447.28 419.5 L 441.95 422.59 L 439.15 423.71 L 436.9 424.27 L 429.61 424.84 L 406.6 427.08 L 386.95 420.35 L 379.1 418.1 Q 373.3 416.04 370.12 411.37 L 351.32 394.25 L 342.06 373.2 L 339.53 367.31 L 338.41 363.38 L 338.41 356.65 L 338.41 331.96 L 347.95 311.19 L 350.76 304.46 Q 351.67 300.6 354.97 299.13 L 371.24 284.53 L 374.89 281.45 L 377.69 279.76 L 383.59 277.8 L 407.16 269.94 Z" /><path fill="none" stroke="rgb(0,0,0)" stroke-width="0.354" opacity="1" d="M 254.50880551338196 277.2378168106079 Q 257.6 276.4 258.44 277.8 L 262.09 280.32 Q 263.86 282.2 263.21 286.5 L 260.12 290.71 Q 258.25 292.48 253.95 291.83 L 249.74 288.74 Q 248.14 286.7 248.62 282.57 L 251.7 278.36 L 254.51 277.24 Z" /><path fill="none" stroke="rgb(0,0,0)" stroke-width="0.354" opacity="1" d="M 413.89248967170715 277.2378168106079 Q 419.57 276.61 421.47 279.76 L 422.87 283.41 L 423.15 285.94 L 420.07 290.71 Q 418.2 292.48 413.89 291.83 L 409.12 288.18 L 408.56 282.01 L 412.21 277.8 L 413.89 277.24 Z" /><path fill="none" stroke="rgb(0,0,0)" stroke-width="0.354" opacity="1" d="M 784.8524024486542 290.1456503868103 L 792.71 290.71 Q 795.89 290.33 797.2 291.83 L 804.21 296.6 L 804.49 297.44 L 1025.05 297.44 L 1080.05 297.44 L 1093.52 297.44 Q 1103.8 296.7 1107.83 302.21 L 1109.79 305.3 L 1110.63 307.26 L 1111.76 312.87 L 1110.63 316.8 Q 1109.3 321.36 1105.86 323.82 L 1103.34 325.22 Q 1101.73 326.98 1098.01 326.62 L 1092.4 327.19 L 1082.29 327.19 L 1042.45 327.19 L 884.19 327.19 L 824.7 327.19 L 809.55 327.19 L 806.18 327.19 Q 803.79 326.76 803.37 328.31 L 800.29 330.27 L 797.2 332.24 L 794.39 333.36 L 785.97 334.48 L 779.8 332.24 Q 773.44 329.9 769.98 324.66 L 767.45 318.77 Q 766.19 317.79 766.61 315.12 L 766.61 306.7 L 769.42 301.09 Q 770.33 297.23 773.63 295.76 L 778.68 292.39 L 784.85 290.15 Z" /><path fill="none" stroke="rgb(0,0,0)" stroke-width="0.354" opacity="1" d="M 1181.066772222519 298.00259256362915 L 1188.08 298.28 Q 1191.85 297.88 1193.41 299.69 L 1200.43 303.9 L 1203.8 308.95 Q 1205.87 310.52 1206.04 314.0 L 1207.16 321.29 L 1206.04 326.9 L 1205.48 328.03 Q 1205.76 330.55 1203.8 330.83 L 1199.59 336.73 L 1193.41 340.09 Q 1192.63 341.55 1190.05 341.22 L 1185.56 341.78 L 1182.75 342.34 L 1176.02 340.09 L 1171.53 337.29 L 1166.76 333.08 L 1164.51 327.47 Q 1162.92 325.97 1163.39 322.42 L 1163.39 314.56 L 1167.04 306.42 L 1171.81 302.21 L 1175.74 299.97 L 1181.07 298.0 Z" /><path fill="none" stroke="rgb(0,0,0)" stroke-width="0.354" opacity="1" d="M 787.0972430706024 304.7371144294739 Q 789.76 304.04 790.46 305.3 L 793.55 306.7 Q 796.1 308.64 795.8 313.44 L 792.71 318.21 Q 790.84 319.98 786.54 319.33 Q 783.1 318.56 781.77 315.68 L 781.2 310.07 L 784.29 305.86 L 787.1 304.74 Z" /><path fill="none" stroke="rgb(0,0,0)" stroke-width="0.354" opacity="1" d="M 218.03014540672302 306.9819550514221 Q 222.46 308.16 224.48 311.75 L 236.27 323.54 L 236.83 327.47 Q 236.13 330.13 232.06 329.43 L 214.94 312.87 L 214.38 310.07 L 216.35 307.54 L 218.03 306.98 Z" /><path fill="none" stroke="rgb(0,0,0)" stroke-width="0.354" opacity="1" d="M 377.9750397205353 306.9819550514221 Q 382.04 307.96 383.59 311.47 L 396.21 324.1 L 396.78 326.9 L 394.81 329.43 Q 391.16 330.27 390.32 328.31 L 387.24 325.22 L 374.33 312.31 Q 373.63 308.24 376.29 307.54 L 377.98 306.98 Z" /><path fill="none" stroke="rgb(0,0,0)" stroke-width="0.354" opacity="1" d="M 1095.2016184329987 308.6655855178833 Q 1098.87 308.08 1099.97 310.07 L 1100.53 312.87 L 1098.57 315.4 L 1096.32 315.96 L 1093.8 314.56 L 1093.24 310.63 L 1095.2 308.67 Z" /><path fill="none" stroke="rgb(0,0,0)" stroke-width="0.354" opacity="1" d="M 1183.3116128444672 312.5940566062927 Q 1186.82 311.61 1187.8 313.16 L 1190.33 314.56 Q 1192.27 316.55 1192.57 320.17 L 1190.05 325.5 L 1187.8 326.62 Q 1186.82 328.17 1183.31 327.19 L 1179.1 324.66 L 1177.98 322.42 L 1177.42 318.49 L 1181.63 313.16 L 1183.31 312.59 Z" /><path fill="none" stroke="rgb(0,0,0)" stroke-width="0.354" opacity="1" d="M 414.4536998271942 335.6036729812622 L 417.26 336.16 Q 420.23 335.72 421.19 337.29 L 425.4 340.37 Q 429.01 343.49 428.2 351.04 L 426.8 354.68 L 424.56 358.05 L 420.63 360.3 L 418.94 360.86 L 413.89 361.42 Q 408.2 360.1 405.19 356.09 L 403.51 352.16 Q 402.11 350.2 402.95 345.99 L 405.47 340.65 L 408.28 338.41 L 410.81 337.01 L 414.45 335.6 Z" /><path fill="none" stroke="rgb(0,0,0)" stroke-width="0.354" opacity="1" d="M 252.82517504692078 336.16488313674927 L 257.88 336.16 Q 260.46 335.83 261.24 337.29 L 264.89 339.25 L 266.86 342.34 L 267.7 343.74 L 268.82 349.35 L 267.98 352.44 Q 267.07 356.58 264.05 358.61 L 259.0 360.86 L 253.95 361.42 Q 248.25 360.1 245.25 356.09 L 244.13 353.28 L 243.57 350.48 L 243.57 345.42 Q 244.94 340.35 248.9 337.85 L 252.83 336.16 Z" /><path fill="none" stroke="rgb(0,0,0)" stroke-width="0.354" opacity="1" d="M 788.7808735370636 338.4097237586975 L 794.95 340.09 Q 798.78 339.91 800.01 342.34 L 805.9 346.55 L 808.7 352.16 Q 810.76 353.75 810.39 357.77 L 810.95 363.94 L 808.14 371.8 L 1039.64 372.08 L 1039.92 371.24 L 1037.68 365.07 L 1037.12 360.58 L 1037.68 357.77 Q 1037.18 353.9 1039.08 352.44 L 1043.57 345.14 L 1048.9 341.5 L 1052.55 340.09 L 1059.28 338.41 L 1065.46 340.09 Q 1069.05 339.87 1070.23 342.06 L 1076.4 346.55 L 1078.93 351.32 Q 1081.19 353.26 1080.89 357.77 L 1081.45 363.94 L 1079.77 368.43 Q 1078.95 372.67 1076.12 374.89 L 1073.03 377.98 L 1071.91 380.22 Q 1073.96 380.98 1073.59 384.15 L 1074.16 388.64 L 1072.47 392.57 L 1070.79 395.93 L 1067.14 399.58 L 1064.34 400.7 L 1059.28 401.27 L 1045.82 401.27 L 993.62 401.27 L 784.85 401.27 L 779.52 398.74 L 777.0 395.65 L 775.31 392.85 L 774.19 389.48 L 773.91 386.39 L 774.47 384.15 L 775.03 381.9 L 776.15 379.1 L 774.47 377.98 L 771.1 374.05 Q 769.05 373.01 768.86 370.12 L 767.17 365.07 L 766.61 360.02 L 767.17 357.21 Q 766.77 353.72 768.58 352.44 L 773.07 345.14 L 777.28 342.06 Q 778.95 339.8 782.89 339.81 L 788.78 338.41 Z" /><path fill="none" stroke="rgb(0,0,0)" stroke-width="0.354" opacity="1" d="M 190.53084778785706 341.2157745361328 Q 194.4 340.71 195.86 342.62 L 198.11 344.3 L 198.67 345.99 L 199.23 350.48 L 195.58 355.25 L 189.41 355.81 L 185.2 352.16 L 184.64 346.55 L 187.72 342.34 L 190.53 341.22 Z" /><path fill="none" stroke="rgb(0,0,0)" stroke-width="0.354" opacity="1" d="M 318.48676323890686 341.2157745361328 Q 324.08 340.95 326.06 344.3 Q 327.93 346.36 327.19 351.04 L 325.22 354.12 Q 323.26 356.65 317.93 355.81 L 313.72 352.72 Q 312.19 350.88 312.59 347.11 L 314.0 344.02 L 318.49 341.22 Z" /><path fill="none" stroke="rgb(0,0,0)" stroke-width="0.354" opacity="1" d="M 349.91453194618225 341.2157745361328 Q 356.03 340.99 358.05 344.86 Q 359.46 346.83 358.61 351.04 L 356.65 354.12 Q 354.68 356.65 349.35 355.81 L 345.71 353.28 L 344.58 350.48 L 344.02 348.23 Q 344.65 344.09 347.67 342.34 L 349.91 341.22 Z" /><path fill="none" stroke="rgb(0,0,0)" stroke-width="0.354" opacity="1" d="M 478.4316575527191 341.2157745361328 Q 483.5 340.92 485.45 343.74 Q 487.6 345.52 487.13 349.91 Q 486.43 353.14 484.04 354.68 Q 482.42 356.71 477.87 355.81 L 473.66 352.72 Q 471.88 350.85 472.54 346.55 L 475.63 342.34 L 478.43 341.22 Z" /><path fill="none" stroke="rgb(0,0,0)" stroke-width="0.354" opacity="1" d="M 787.0972430706024 353.56239795684814 Q 793.52 353.03 795.23 357.21 L 796.36 361.7 Q 795.34 365.73 792.15 367.59 L 786.54 368.15 L 783.45 366.19 Q 781.51 364.2 781.2 360.58 L 783.17 355.81 L 787.1 353.56 Z" /><path fill="none" stroke="rgb(0,0,0)" stroke-width="0.354" opacity="1" d="M 1057.6005380153656 353.56239795684814 Q 1064.03 353.03 1065.74 357.21 L 1066.86 361.7 L 1063.77 367.03 Q 1061.73 368.63 1057.6 368.15 L 1054.51 366.75 Q 1052.06 364.71 1051.71 360.58 L 1053.67 355.81 L 1057.6 353.56 Z" /><path fill="none" stroke="rgb(0,0,0)" stroke-width="0.354" opacity="1" d="M 1181.066772222519 357.49086904525757 L 1188.08 357.77 Q 1191.85 357.37 1193.41 359.17 L 1200.43 363.38 L 1203.8 368.43 Q 1205.87 370.0 1206.04 373.49 L 1207.16 380.78 L 1206.04 386.39 L 1205.48 387.52 Q 1205.76 390.04 1203.8 390.32 L 1199.59 396.21 L 1193.41 399.58 Q 1192.63 401.04 1190.05 400.7 L 1185.56 401.27 L 1182.75 401.83 L 1176.02 399.58 L 1171.53 396.78 L 1166.76 392.57 L 1164.51 386.95 Q 1162.92 385.46 1163.39 381.9 L 1163.39 374.05 L 1167.04 365.91 L 1171.81 361.7 L 1175.74 359.46 L 1181.07 357.49 Z" /><path fill="none" stroke="rgb(0,0,0)" stroke-width="0.354" opacity="1" d="M 277.51842188835144 367.59265184402466 Q 280.79 367.12 281.73 369.0 L 284.53 371.8 L 296.32 383.59 Q 297.89 384.54 297.44 387.52 L 296.04 389.48 L 292.67 390.04 L 275.55 373.49 L 274.99 370.12 L 276.4 368.15 L 277.52 367.59 Z" /><path fill="none" stroke="rgb(0,0,0)" stroke-width="0.354" opacity="1" d="M 437.4633162021637 367.59265184402466 Q 440.34 367.24 441.11 369.0 L 444.2 372.08 L 456.83 384.71 L 457.39 386.39 L 454.86 390.04 Q 451.63 390.74 450.93 388.92 L 447.85 385.83 L 434.94 372.92 Q 434.1 369.0 436.34 368.15 L 437.46 367.59 Z" /><path fill="none" stroke="rgb(0,0,0)" stroke-width="0.354" opacity="1" d="M 1183.3116128444672 372.08233308792114 Q 1186.82 371.1 1187.8 372.64 L 1190.33 374.05 Q 1192.27 376.03 1192.57 379.66 L 1190.05 384.99 L 1187.8 386.11 Q 1186.82 387.66 1183.31 386.67 L 1179.1 384.15 L 1177.98 381.9 L 1177.42 377.98 L 1181.63 372.64 L 1183.31 372.08 Z" /><path fill="none" stroke="rgb(0,0,0)" stroke-width="0.354" opacity="1" d="M 254.50880551338196 405.1937322616577 Q 257.17 404.49 257.88 405.75 L 260.96 407.16 Q 263.92 409.25 263.21 415.01 L 261.24 418.1 Q 259.26 420.04 255.63 420.35 L 250.3 417.82 L 249.18 415.58 Q 247.63 414.59 248.62 411.09 Q 249.39 407.65 252.26 406.32 L 254.51 405.19 Z" /><path fill="none" stroke="rgb(0,0,0)" stroke-width="0.354" opacity="1" d="M 414.4536998271942 405.1937322616577 Q 417.12 404.49 417.82 405.75 L 422.03 408.84 L 423.15 413.33 Q 422.66 417.05 420.07 418.66 L 415.58 420.35 L 413.89 419.79 L 411.93 418.94 L 409.68 417.26 Q 407.81 415.2 408.56 410.53 L 411.65 406.32 L 414.45 405.19 Z" /><path fill="none" stroke="rgb(0,0,0)" stroke-width="0.354" opacity="1" d="M 1181.066772222519 416.979145526886 L 1188.08 417.26 Q 1191.85 416.85 1193.41 418.66 L 1200.43 422.87 L 1203.8 427.92 Q 1205.87 429.49 1206.04 432.97 L 1207.16 440.27 L 1206.04 445.88 L 1205.48 447.0 Q 1205.76 449.53 1203.8 449.81 L 1199.59 455.7 L 1193.41 459.07 Q 1192.63 460.53 1190.05 460.19 L 1185.56 460.75 L 1182.75 461.31 L 1176.02 459.07 L 1171.53 456.26 L 1166.76 452.05 L 1164.51 446.44 Q 1162.92 444.95 1163.39 441.39 L 1163.39 433.53 L 1167.04 425.4 L 1171.81 421.19 L 1175.74 418.94 L 1181.07 416.98 Z" /><path fill="none" stroke="rgb(0,0,0)" stroke-width="0.354" opacity="1" d="M 787.6584532260895 420.34640645980835 L 795.23 421.75 Q 798.57 421.5 799.44 423.71 L 805.9 428.48 L 808.7 434.1 L 809.83 435.78 L 810.39 439.71 L 810.95 445.32 L 808.14 453.74 L 1039.64 454.02 L 1039.92 453.18 L 1037.68 447.0 L 1037.12 442.51 L 1037.68 439.71 Q 1037.28 435.94 1038.8 434.1 L 1044.13 426.52 L 1048.62 423.71 Q 1049.49 421.5 1052.83 421.75 L 1059.85 420.35 L 1065.74 421.75 Q 1069.08 421.5 1069.95 423.71 L 1076.4 428.48 L 1079.49 433.82 L 1080.61 437.18 L 1080.89 439.71 L 1081.45 445.32 L 1079.49 451.21 L 1077.52 454.86 L 1071.91 461.6 Q 1073.91 462.68 1073.59 466.09 L 1074.16 470.57 L 1072.75 474.22 Q 1071.33 478.69 1067.7 480.96 L 1063.77 482.64 L 1058.72 483.2 L 1045.82 483.2 L 993.62 483.2 L 785.41 483.2 Q 779.27 481.49 776.15 476.75 L 774.47 471.7 L 773.91 468.33 L 774.47 466.09 L 775.03 463.84 L 776.15 461.03 L 770.26 454.58 Q 767.95 452.12 767.45 447.85 Q 766.02 445.91 766.61 441.95 L 767.17 439.15 Q 766.85 435.74 768.3 434.1 L 773.63 426.52 L 778.12 423.71 Q 778.99 421.5 782.33 421.75 L 787.66 420.35 Z" /><path fill="none" stroke="rgb(0,0,0)" stroke-width="0.354" opacity="1" d="M 1183.3116128444672 431.57060956954956 Q 1186.82 430.59 1187.8 432.13 L 1190.33 433.53 Q 1192.27 435.52 1192.57 439.15 L 1190.05 444.48 L 1187.8 445.6 Q 1186.82 447.14 1183.31 446.16 L 1179.1 443.64 L 1177.98 441.39 L 1177.42 437.46 L 1181.63 432.13 L 1183.31 431.57 Z" /><path fill="none" stroke="rgb(0,0,0)" stroke-width="0.354" opacity="1" d="M 786.5360329151154 435.499080657959 Q 790.37 434.75 792.15 436.06 L 794.67 438.02 L 796.36 443.08 Q 795.73 447.21 792.71 448.97 Q 791.03 450.65 787.1 450.09 L 782.33 446.44 L 781.2 442.51 L 783.73 437.18 L 786.54 435.5 Z" /><path fill="none" stroke="rgb(0,0,0)" stroke-width="0.354" opacity="1" d="M 1057.0393278598785 435.499080657959 Q 1060.87 434.75 1062.65 436.06 L 1065.18 438.02 L 1066.86 443.64 Q 1066.0 447.26 1063.21 448.97 Q 1061.53 450.65 1057.6 450.09 L 1052.83 446.44 L 1051.71 442.51 L 1054.23 437.18 L 1057.04 435.5 Z" /><path fill="none" stroke="rgb(0,0,0)" stroke-width="0.354" opacity="1" d="M 1181.066772222519 476.4674220085144 L 1188.08 476.75 Q 1191.85 476.34 1193.41 478.15 L 1200.43 482.36 L 1203.8 487.41 Q 1205.87 488.98 1206.04 492.46 L 1207.16 499.76 L 1206.04 505.37 L 1205.48 506.49 Q 1205.76 509.02 1203.8 509.3 L 1199.59 515.19 L 1193.41 518.56 Q 1192.63 520.02 1190.05 519.68 L 1185.56 520.24 L 1182.75 520.8 L 1176.02 518.56 L 1171.53 515.75 L 1166.76 511.54 L 1164.51 505.93 Q 1162.92 504.43 1163.39 500.88 L 1163.39 493.02 L 1167.04 484.89 L 1171.81 480.68 L 1175.74 478.43 L 1181.07 476.47 Z" /><path fill="none" stroke="rgb(0,0,0)" stroke-width="0.354" opacity="1" d="M 1183.3116128444672 491.058886051178 Q 1186.82 490.08 1187.8 491.62 L 1190.33 493.02 Q 1192.27 495.01 1192.57 498.64 L 1190.05 503.97 L 1187.8 505.09 Q 1186.82 506.63 1183.31 505.65 L 1179.1 503.12 L 1177.98 500.88 L 1177.42 496.95 L 1181.63 491.62 L 1183.31 491.06 Z" /><path fill="none" stroke="rgb(0,0,0)" stroke-width="0.354" opacity="1" d="M 740.5168001651764 521.9254446029663 L 779.24 521.93 L 788.78 521.93 L 795.23 522.77 L 805.62 524.73 L 832.27 530.62 L 840.13 532.31 L 844.9 533.71 L 851.08 536.52 L 876.89 547.74 L 885.87 552.23 Q 890.72 552.99 893.17 556.16 L 902.71 562.89 L 924.03 578.61 Q 931.83 582.87 937.22 589.55 L 965.28 620.98 L 968.65 625.47 L 973.14 633.33 L 974.82 636.13 L 975.38 641.18 L 975.38 654.09 L 975.38 706.28 L 975.66 913.09 L 986.61 912.81 L 986.89 657.18 L 991.66 665.31 L 992.78 667.56 L 993.34 669.8 L 995.59 675.42 L 1004.29 702.64 Q 1007.94 710.77 1009.62 720.87 L 1010.18 728.17 Q 1009.48 730.84 1010.74 731.54 L 1011.3 741.64 L 1011.86 743.32 L 1012.14 746.97 L 1013.55 760.16 L 1014.39 768.3 L 1014.67 777.0 L 1014.67 803.93 L 1014.67 872.96 L 1014.67 890.36 L 1014.67 894.85 L 1015.51 897.94 L 1016.91 901.58 L 1023.93 921.51 L 1031.22 941.71 L 1033.75 949.85 L 1034.31 956.58 L 1034.87 959.39 L 1036.56 975.66 L 1039.36 998.67 L 1037.12 999.23 L 1036.84 1010.18 L 1025.89 1009.9 L 1025.61 998.95 L 1012.42 998.67 L 1012.7 987.73 L 1020.28 987.45 L 1020.0 973.14 L 1012.42 972.86 L 1012.14 963.6 L 997.83 963.88 L 997.55 973.14 L 989.97 973.42 L 990.26 987.73 L 997.83 988.01 L 997.55 998.95 L 984.92 999.23 L 984.64 1010.18 L 973.14 1009.9 L 972.86 998.95 L 584.78 999.23 L 584.5 1010.18 L 573.0 1009.9 L 572.71 998.95 L 560.09 998.67 L 560.37 987.73 L 567.94 987.45 L 567.66 973.14 L 560.09 972.86 L 559.81 963.6 L 545.5 963.88 L 545.22 973.14 L 537.64 973.42 L 537.92 987.73 L 545.5 988.01 L 545.22 998.95 L 532.03 999.23 L 531.75 1010.18 L 520.8 1009.9 L 520.52 998.95 L 518.56 998.67 L 518.84 900.74 L 683.55 900.46 L 683.27 889.52 L 518.56 889.24 L 518.84 869.88 L 844.62 869.6 L 844.34 835.64 L 790.18 814.04 L 776.15 808.42 L 772.51 807.02 L 767.45 806.46 L 755.67 806.46 L 707.97 806.46 L 518.56 806.18 L 518.56 777.56 L 519.12 761.84 L 519.68 760.16 L 519.96 756.51 L 521.36 742.2 L 523.33 724.52 L 523.89 718.91 L 525.29 713.58 L 528.66 703.48 L 537.08 677.66 Q 538.84 667.64 544.09 661.11 L 557.84 636.69 L 564.02 626.03 L 574.68 613.12 L 600.78 584.22 L 632.76 561.21 L 639.78 555.88 L 649.88 550.83 L 677.1 538.76 L 686.64 534.27 L 693.94 532.03 L 704.6 529.78 L 729.85 524.73 L 740.52 521.93 Z" /><path fill="none" stroke="rgb(0,0,0)" stroke-width="0.354" opacity="1" d="M 1181.066772222519 535.9556984901428 L 1188.08 536.24 Q 1191.85 535.83 1193.41 537.64 L 1200.43 541.85 L 1203.8 546.9 Q 1205.87 548.47 1206.04 551.95 L 1207.16 559.25 L 1206.04 564.86 L 1205.48 565.98 Q 1205.76 568.51 1203.8 568.79 L 1199.59 574.68 L 1193.41 578.05 Q 1192.63 579.51 1190.05 579.17 L 1185.56 579.73 L 1182.75 580.29 L 1176.02 578.05 L 1171.53 575.24 L 1166.76 571.03 L 1164.51 565.42 Q 1162.92 563.92 1163.39 560.37 L 1163.39 552.51 L 1167.04 544.37 L 1171.81 540.16 L 1175.74 537.92 L 1181.07 535.96 Z" /><path fill="none" stroke="rgb(0,0,0)" stroke-width="0.354" opacity="1" d="M 247.77428364753723 540.4453797340393 L 272.47 543.25 L 278.08 543.81 Q 280.61 543.25 281.17 544.65 L 286.22 547.46 L 309.79 561.49 L 323.26 580.57 L 327.19 585.62 L 328.59 589.27 L 329.99 596.29 L 335.04 619.3 L 329.99 642.3 L 328.59 648.76 Q 328.84 652.1 326.62 652.97 L 322.98 658.3 L 307.82 678.5 L 286.78 690.57 L 282.01 693.09 L 279.76 694.22 L 277.52 694.78 L 270.22 695.34 L 246.65 697.58 L 225.33 690.29 L 218.87 688.32 L 214.94 686.08 L 209.33 681.03 L 191.93 665.31 L 181.83 642.87 L 179.59 637.82 L 178.46 633.89 L 178.46 627.71 L 178.46 603.02 L 192.78 571.87 L 210.17 556.16 L 218.03 549.99 L 225.33 547.74 L 247.77 540.45 Z" /><path fill="none" stroke="rgb(0,0,0)" stroke-width="0.354" opacity="1" d="M 407.1579678058624 540.4453797340393 L 431.85 543.25 L 437.46 543.81 Q 440.44 543.36 441.39 544.94 L 447.0 548.3 L 462.44 557.0 Q 467.4 558.77 470.29 562.61 L 484.32 582.26 L 487.13 586.18 Q 488.67 587.45 488.53 590.39 L 489.66 595.44 L 493.3 612.56 L 494.15 616.77 L 494.43 620.98 L 489.66 642.59 L 488.25 649.04 L 486.57 652.97 L 482.92 658.3 L 467.77 678.5 L 447.28 690.01 L 441.95 693.09 L 439.15 694.22 L 436.9 694.78 L 430.17 695.34 L 406.6 697.58 L 384.71 690.29 L 378.54 688.04 Q 372.87 686.42 370.12 681.87 L 351.88 665.88 L 342.06 643.71 L 339.53 638.38 L 338.41 634.45 L 338.41 627.71 L 338.41 602.46 L 347.95 581.69 L 350.76 574.96 Q 351.67 571.1 354.97 569.63 L 371.24 555.04 L 374.89 551.95 L 377.69 550.27 L 383.59 548.3 L 407.16 540.45 Z" /><path fill="none" stroke="rgb(0,0,0)" stroke-width="0.354" opacity="1" d="M 254.50880551338196 547.7411117553711 Q 260.1 547.48 262.09 550.83 Q 263.86 552.7 263.21 557.0 L 260.12 561.21 Q 258.25 562.99 253.95 562.33 L 249.74 559.25 Q 248.14 557.2 248.62 553.07 L 251.14 549.42 L 254.51 547.74 Z" /><path fill="none" stroke="rgb(0,0,0)" stroke-width="0.354" opacity="1" d="M 413.89248967170715 547.7411117553711 Q 419.57 547.11 421.47 550.27 L 422.87 553.91 L 423.15 556.44 L 420.07 561.21 Q 418.2 562.99 413.89 562.33 L 409.12 558.68 L 408.56 552.51 L 411.65 548.86 L 413.89 547.74 Z" /><path fill="none" stroke="rgb(0,0,0)" stroke-width="0.354" opacity="1" d="M 1183.3116128444672 550.5471625328064 Q 1186.82 549.57 1187.8 551.11 L 1190.33 552.51 Q 1192.27 554.5 1192.57 558.12 L 1190.05 563.46 L 1187.8 564.58 Q 1186.82 566.12 1183.31 565.14 L 1179.1 562.61 L 1177.98 560.37 L 1177.42 556.44 L 1181.63 551.11 L 1183.31 550.55 Z" /><path fill="none" stroke="rgb(0,0,0)" stroke-width="0.354" opacity="1" d="M 218.03014540672302 577.4852499961853 Q 222.46 578.67 224.48 582.26 L 236.27 594.04 L 236.83 597.97 Q 235.99 600.78 231.5 599.93 L 219.15 587.59 L 216.07 584.5 Q 214.02 583.74 214.38 580.57 L 216.35 578.05 L 218.03 577.49 Z" /><path fill="none" stroke="rgb(0,0,0)" stroke-width="0.354" opacity="1" d="M 377.9750397205353 577.4852499961853 Q 382.04 578.47 383.59 581.97 L 396.21 594.6 L 396.78 597.41 L 394.81 599.93 Q 391.16 600.78 390.32 598.81 L 387.24 595.72 L 374.33 582.82 Q 373.63 578.75 376.29 578.05 L 377.98 577.49 Z" /><path fill="none" stroke="rgb(0,0,0)" stroke-width="0.354" opacity="1" d="M 190.53084778785706 611.719069480896 Q 194.4 611.22 195.86 613.12 L 198.11 614.81 L 198.67 616.49 L 199.23 620.98 L 195.58 625.75 L 189.41 626.31 L 185.2 622.66 Q 183.89 620.89 184.64 617.05 L 187.16 613.4 L 190.53 611.72 Z" /><path fill="none" stroke="rgb(0,0,0)" stroke-width="0.354" opacity="1" d="M 254.50880551338196 611.719069480896 Q 259.57 611.42 261.52 614.24 Q 263.77 616.21 263.21 620.98 Q 262.44 624.42 259.56 625.75 Q 257.78 627.06 253.95 626.31 L 249.74 623.22 Q 248.05 621.54 248.62 617.61 L 250.58 613.96 L 254.51 611.72 Z" /><path fill="none" stroke="rgb(0,0,0)" stroke-width="0.354" opacity="1" d="M 319.0479733943939 611.719069480896 Q 324.2 611.62 326.06 614.81 Q 327.93 616.86 327.19 621.54 L 325.22 624.63 Q 323.26 627.15 317.93 626.31 L 313.72 623.22 Q 312.19 621.38 312.59 617.61 L 316.24 612.84 L 319.05 611.72 Z" /><path fill="none" stroke="rgb(0,0,0)" stroke-width="0.354" opacity="1" d="M 350.4757421016693 611.719069480896 Q 356.13 611.67 358.05 615.37 Q 359.46 617.33 358.61 621.54 L 356.65 624.63 Q 354.68 627.15 349.35 626.31 L 345.71 623.79 Q 344.0 622.13 344.02 618.73 Q 344.65 614.6 347.67 612.84 L 350.48 611.72 Z" /><path fill="none" stroke="rgb(0,0,0)" stroke-width="0.354" opacity="1" d="M 414.4536998271942 611.719069480896 L 416.98 612.0 L 420.91 613.68 Q 423.31 615.49 423.15 619.86 Q 422.66 623.57 420.07 625.19 Q 418.01 627.06 413.33 626.31 L 409.68 623.79 Q 407.81 621.73 408.56 617.05 L 411.65 612.84 L 414.45 611.72 Z" /><path fill="none" stroke="rgb(0,0,0)" stroke-width="0.354" opacity="1" d="M 478.4316575527191 611.719069480896 Q 483.2 611.72 485.45 614.24 Q 487.6 616.02 487.13 620.42 Q 486.43 623.64 484.04 625.19 Q 482.42 627.21 477.87 626.31 Q 474.43 625.54 473.1 622.66 L 472.54 617.05 L 475.63 612.84 L 478.43 611.72 Z" /><path fill="none" stroke="rgb(0,0,0)" stroke-width="0.354" opacity="1" d="M 277.51842188835144 638.0959467887878 Q 280.79 637.63 281.73 639.5 L 284.53 642.3 L 296.32 654.09 L 297.44 658.02 L 296.04 659.98 L 292.11 660.54 L 279.76 648.2 L 276.68 645.11 Q 274.51 644.19 274.99 640.62 L 276.4 638.66 L 277.52 638.1 Z" /><path fill="none" stroke="rgb(0,0,0)" stroke-width="0.354" opacity="1" d="M 437.4633162021637 638.0959467887878 Q 440.34 637.75 441.11 639.5 L 444.2 642.59 L 456.83 655.21 L 457.39 656.9 L 454.86 660.54 Q 451.63 661.25 450.93 659.42 L 447.85 656.34 L 434.94 643.43 Q 434.1 639.5 436.34 638.66 L 437.46 638.1 Z" /><path fill="none" stroke="rgb(0,0,0)" stroke-width="0.354" opacity="1" d="M 253.38638520240784 676.258237361908 Q 258.78 675.36 260.96 677.66 Q 263.92 679.75 263.21 685.52 L 261.24 688.6 L 257.88 690.29 L 255.63 690.85 L 250.3 688.32 L 249.18 686.08 Q 247.63 685.1 248.62 681.59 Q 249.39 678.15 252.26 676.82 L 253.39 676.26 Z" /><path fill="none" stroke="rgb(0,0,0)" stroke-width="0.354" opacity="1" d="M 413.3312795162201 676.258237361908 Q 420.38 675.1 422.03 679.34 Q 423.47 680.99 423.15 684.4 Q 422.29 688.02 419.5 689.73 L 415.58 690.85 L 413.89 690.29 L 412.21 689.73 L 409.68 687.76 Q 407.81 685.71 408.56 681.03 L 411.65 676.82 L 413.33 676.26 Z" /><path fill="none" stroke="rgb(0,0,0)" stroke-width="0.354" opacity="1" d="M 1110.3542926311493 1011.8619103431702 L 1123.82 1011.86 Q 1128.66 1011.23 1131.4 1012.7 L 1140.66 1014.67 L 1146.83 1016.91 L 1153.01 1019.72 Q 1158.59 1021.15 1161.99 1024.77 Q 1169.35 1028.92 1174.61 1035.15 L 1183.31 1046.1 L 1187.24 1052.83 L 1190.33 1059.28 L 1192.85 1067.42 Q 1194.78 1070.82 1194.82 1076.12 L 1195.66 1084.26 L 1195.94 1091.83 L 1195.38 1093.52 L 1195.1 1097.17 L 1194.82 1102.5 L 1190.61 1115.69 Q 1188.45 1123.07 1184.15 1128.31 L 1179.38 1135.33 L 1170.4 1145.43 L 1160.58 1152.45 L 1160.3 1258.23 L 1139.82 1257.95 L 1139.54 1246.45 L 1126.91 1246.17 L 1127.19 1235.22 L 1134.77 1234.94 L 1134.49 1221.19 L 1126.91 1220.91 L 1126.63 1211.09 L 1111.76 1211.37 L 1111.48 1221.19 L 1103.9 1221.47 L 1104.18 1235.22 L 1111.76 1235.5 L 1111.48 1246.45 L 1098.85 1246.73 L 1098.57 1258.23 L 1078.08 1257.95 L 1078.08 1178.82 L 1078.08 1159.18 L 1078.08 1154.13 Q 1078.51 1151.46 1076.68 1151.04 L 1067.98 1145.15 L 1059.85 1135.89 L 1055.92 1130.84 L 1052.27 1123.82 Q 1049.16 1121.04 1048.34 1115.97 L 1045.53 1107.55 L 1043.85 1100.81 L 1042.73 1085.66 L 1043.29 1082.85 L 1043.85 1075.56 L 1045.82 1067.98 L 1047.78 1060.97 Q 1050.15 1053.8 1054.23 1048.34 L 1059.0 1041.33 L 1068.82 1030.38 L 1078.37 1023.65 L 1080.33 1022.24 L 1082.29 1021.4 L 1089.87 1017.75 L 1094.08 1015.79 L 1098.57 1014.67 L 1110.35 1011.86 Z" /><path fill="none" stroke="rgb(0,0,0)" stroke-width="0.354" opacity="1" d="M 392.56650376319885 1015.2291712760925 L 434.1 1015.23 L 444.2 1015.23 Q 448.34 1014.74 450.65 1016.07 L 462.72 1018.6 L 486.29 1023.65 L 493.02 1024.77 L 503.97 1028.98 L 529.5 1040.48 L 540.73 1045.53 L 543.53 1046.66 L 545.78 1048.34 L 555.32 1055.08 L 588.15 1079.49 L 610.88 1105.02 Q 617.52 1111.01 622.38 1118.77 L 630.8 1133.93 L 633.05 1137.29 L 633.61 1138.98 L 633.61 1143.47 L 633.61 1160.3 L 633.61 1227.65 L 629.12 1228.21 L 628.84 1255.99 L 336.73 1256.27 L 337.29 1259.07 L 337.29 1265.81 L 336.73 1266.93 L 629.12 1267.49 L 629.4 1295.27 L 633.61 1295.55 L 633.61 1362.34 L 633.61 1379.17 L 633.61 1383.1 L 633.05 1385.35 L 631.08 1389.0 L 622.38 1404.43 L 619.58 1408.36 L 610.32 1418.74 L 585.62 1446.24 L 553.63 1469.25 L 546.34 1474.3 L 541.85 1477.11 L 531.19 1482.16 L 504.81 1493.94 L 500.04 1495.91 L 492.74 1498.15 L 486.29 1499.55 L 459.91 1505.17 L 450.65 1507.13 L 444.2 1507.97 L 434.1 1507.97 L 392.57 1507.97 L 357.21 1500.11 L 347.39 1498.15 Q 342.89 1497.88 340.37 1495.63 L 329.71 1491.14 L 305.3 1480.19 L 297.72 1477.11 L 293.79 1474.3 L 285.94 1468.69 L 253.67 1445.4 L 228.97 1417.9 L 221.4 1409.2 L 217.19 1403.31 L 211.58 1393.77 L 197.55 1369.07 L 194.46 1363.74 L 192.5 1358.97 L 190.81 1352.8 L 181.55 1325.02 L 178.75 1316.6 L 177.62 1312.67 L 177.34 1310.15 L 176.22 1299.48 L 173.41 1272.54 L 172.29 1259.07 L 172.85 1256.27 L 173.41 1250.66 L 176.22 1224.28 L 177.34 1213.62 L 177.62 1210.53 L 178.46 1206.88 L 182.39 1195.66 L 190.81 1169.84 Q 192.62 1160.15 197.83 1153.85 L 211.3 1130.28 L 217.19 1120.46 Q 218.3 1116.52 221.12 1114.28 L 228.41 1105.86 L 254.51 1076.96 L 287.06 1053.39 L 294.64 1048.06 L 305.58 1042.73 L 331.96 1030.94 L 340.37 1027.01 L 345.99 1025.33 L 355.25 1023.37 L 392.57 1015.23 Z" /><path fill="none" stroke="rgb(0,0,0)" stroke-width="0.354" opacity="1" d="M 736.0271189212799 1015.2291712760925 L 781.49 1015.23 L 793.27 1015.23 L 797.48 1015.51 L 800.29 1016.07 L 810.11 1018.04 L 840.69 1023.93 L 848.27 1025.33 L 858.93 1029.26 L 888.96 1041.33 L 900.46 1046.1 L 904.95 1048.34 L 911.41 1052.55 L 937.78 1069.95 L 945.92 1075.28 L 952.09 1080.33 L 963.04 1091.27 L 981.0 1109.79 L 988.57 1117.93 L 992.5 1124.1 L 1008.49 1149.64 L 1013.55 1157.5 Q 1017.11 1161.79 1018.32 1168.44 L 1028.42 1196.5 L 1032.07 1206.32 L 1033.19 1210.25 L 1033.75 1214.18 L 1034.87 1224.28 L 1039.36 1262.44 L 1038.8 1264.69 L 1037.68 1274.23 L 1034.87 1298.92 L 1033.75 1310.15 L 1032.35 1315.48 L 1028.7 1325.3 L 1018.6 1353.92 Q 1017.16 1360.34 1014.11 1365.14 L 1010.18 1371.32 L 995.31 1394.61 L 989.97 1402.74 L 985.2 1409.2 L 977.63 1416.78 L 949.29 1445.68 L 914.77 1468.41 L 906.07 1474.3 L 899.34 1477.67 L 886.43 1482.72 L 858.93 1493.94 L 849.11 1497.59 L 840.69 1499.27 L 811.51 1504.89 L 798.32 1507.41 L 793.27 1507.97 L 781.49 1507.97 L 736.03 1507.97 L 695.9 1499.83 L 696.18 1453.53 L 707.12 1456.06 L 731.54 1460.83 L 740.52 1462.51 L 745.01 1463.07 L 753.99 1463.07 L 790.46 1463.07 L 823.01 1456.34 L 831.71 1454.94 L 839.85 1452.41 L 866.79 1441.75 L 875.21 1437.82 L 880.82 1435.01 L 888.96 1429.68 L 908.88 1416.49 Q 917.33 1412.04 922.91 1404.71 L 946.76 1380.86 L 963.88 1353.64 L 968.37 1346.9 L 970.89 1341.57 L 973.7 1334.28 L 981.84 1310.99 L 984.92 1301.73 L 985.49 1293.87 L 989.41 1260.2 L 988.85 1257.39 L 988.29 1252.9 L 985.77 1230.73 L 984.92 1223.72 L 984.36 1219.79 L 983.24 1216.42 L 980.43 1208.57 L 972.02 1185.0 Q 971.18 1179.94 968.65 1176.58 L 962.48 1167.6 L 950.69 1149.08 Q 946.43 1139.87 938.62 1134.21 L 914.49 1110.07 L 886.99 1092.11 L 880.26 1087.63 L 876.33 1085.38 L 870.72 1083.14 L 849.95 1074.72 L 839.29 1070.79 L 834.52 1068.82 L 826.94 1067.42 L 803.09 1062.65 L 794.11 1060.97 L 788.22 1060.13 L 779.24 1060.13 L 742.2 1060.13 L 708.53 1066.86 L 701.23 1067.98 L 696.18 1069.67 L 695.9 1023.37 L 736.03 1015.23 Z" /><path fill="none" stroke="rgb(0,0,0)" stroke-width="0.354" opacity="1" d="M 764.0876266956329 1034.8715267181396 L 768.02 1034.87 L 769.7 1035.43 L 772.79 1037.96 Q 774.47 1039.64 773.91 1043.57 L 770.82 1048.34 L 769.14 1048.9 L 765.21 1049.46 Q 761.98 1048.76 760.44 1046.38 Q 758.57 1044.32 759.32 1039.64 L 762.97 1035.43 L 764.09 1034.87 Z" /><path fill="none" stroke="rgb(0,0,0)" stroke-width="0.354" opacity="1" d="M 378.53624987602234 1036.5551571846008 L 405.19 1036.84 L 404.91 1047.78 L 378.26 1047.5 L 378.54 1036.56 Z" /><path fill="none" stroke="rgb(0,0,0)" stroke-width="0.354" opacity="1" d="M 435.21847558021545 1036.5551571846008 L 461.88 1036.84 L 461.6 1047.78 L 434.94 1047.5 L 435.22 1036.56 Z" /><path fill="none" stroke="rgb(0,0,0)" stroke-width="0.354" opacity="1" d="M 725.9253361225128 1036.5551571846008 L 745.85 1036.84 L 745.57 1047.78 L 725.64 1047.5 L 725.93 1036.56 Z" /><path fill="none" stroke="rgb(0,0,0)" stroke-width="0.354" opacity="1" d="M 787.0972430706024 1036.5551571846008 L 807.58 1036.84 L 807.3 1047.78 L 786.82 1047.5 L 787.1 1036.56 Z" /><path fill="none" stroke="rgb(0,0,0)" stroke-width="0.354" opacity="1" d="M 415.0149099826813 1046.0957298278809 L 425.96 1046.38 L 425.68 1059.0 L 414.73 1058.72 L 415.01 1046.1 Z" /><path fill="none" stroke="rgb(0,0,0)" stroke-width="0.354" opacity="1" d="M 420.0658013820648 1070.2277665138245 Q 424.7 1070.65 426.52 1073.88 Q 427.96 1075.52 427.64 1078.93 Q 426.78 1082.55 423.99 1084.26 L 420.07 1085.38 L 418.38 1084.82 L 416.7 1084.26 L 414.17 1082.29 L 412.49 1077.8 L 413.05 1076.12 L 413.61 1074.44 L 415.58 1071.91 L 420.07 1070.23 Z" /><path fill="none" stroke="rgb(0,0,0)" stroke-width="0.354" opacity="1" d="M 1119.3336551189423 1078.0847086906433 L 1123.26 1079.21 Q 1128.24 1080.12 1130.28 1083.98 Q 1132.64 1086.94 1132.52 1092.4 Q 1131.42 1098.59 1127.19 1101.66 Q 1123.45 1105.21 1114.84 1103.9 L 1113.16 1103.34 L 1109.51 1103.06 L 1097.45 1101.66 L 1082.29 1099.97 L 1075.0 1099.41 L 1072.75 1098.85 L 1065.18 1098.01 L 1059.28 1097.17 Q 1056.17 1096.91 1055.08 1094.64 L 1053.95 1090.71 Q 1054.65 1087.48 1057.04 1085.94 Q 1059.99 1084.4 1064.62 1084.54 L 1074.72 1083.42 L 1106.43 1079.77 L 1116.53 1078.65 L 1119.33 1078.08 Z" /><path fill="none" stroke="rgb(0,0,0)" stroke-width="0.354" opacity="1" d="M 552.5113980770111 1097.1658539772034 L 564.02 1097.45 L 563.74 1110.07 L 552.23 1109.79 L 552.51 1097.17 Z" /><path fill="none" stroke="rgb(0,0,0)" stroke-width="0.354" opacity="1" d="M 415.0149099826813 1098.2882742881775 L 425.96 1098.57 L 425.68 1111.2 L 414.73 1110.92 L 415.01 1098.29 Z" /><path fill="none" stroke="rgb(0,0,0)" stroke-width="0.354" opacity="1" d="M 493.58433175086975 1102.216745376587 L 534.83 1102.5 L 534.55 1183.03 L 493.3 1182.75 L 493.58 1102.22 Z" /><path fill="none" stroke="rgb(0,0,0)" stroke-width="0.354" opacity="1" d="M 557.5622894763947 1121.297890663147 Q 562.67 1121.52 564.58 1124.95 L 565.14 1131.12 L 563.17 1134.21 Q 561.21 1136.73 555.88 1135.89 L 552.23 1133.36 Q 550.52 1131.7 550.55 1128.31 Q 551.18 1124.17 554.2 1122.42 L 557.56 1121.3 Z" /><path fill="none" stroke="rgb(0,0,0)" stroke-width="0.354" opacity="1" d="M 305.57892966270447 1133.6445140838623 L 347.39 1133.93 L 347.11 1214.46 L 336.73 1214.74 L 336.45 1235.78 L 315.4 1235.5 L 315.12 1214.46 L 305.3 1214.18 L 305.58 1133.64 Z" /><path fill="none" stroke="rgb(0,0,0)" stroke-width="0.354" opacity="1" d="M 552.5113980770111 1149.3583984375 L 564.02 1149.64 L 563.74 1162.27 L 552.23 1161.99 L 552.51 1149.36 Z" /><path fill="none" stroke="rgb(0,0,0)" stroke-width="0.354" opacity="1" d="M 617.6117761135101 1152.1644492149353 Q 622.68 1151.87 624.63 1154.69 Q 626.78 1156.47 626.31 1160.86 Q 625.61 1164.09 623.22 1165.63 Q 621.6 1167.65 617.05 1166.76 L 612.84 1163.67 Q 611.06 1161.8 611.72 1157.5 L 614.81 1153.29 L 617.61 1152.16 Z" /><path fill="none" stroke="rgb(0,0,0)" stroke-width="0.354" opacity="1" d="M 618.1729862689972 1182.4697976112366 L 620.42 1183.03 L 624.07 1184.43 Q 626.92 1186.35 626.31 1191.73 L 623.79 1195.94 L 618.17 1197.62 L 612.84 1194.54 Q 611.24 1192.49 611.72 1188.36 L 613.12 1185.28 L 618.17 1182.47 Z" /><path fill="none" stroke="rgb(0,0,0)" stroke-width="0.354" opacity="1" d="M 640.6213924884796 1239.7132334709167 L 659.98 1243.36 L 664.19 1244.2 L 666.16 1245.04 L 667.28 1255.71 L 640.62 1255.99 L 640.62 1239.71 Z" /><path fill="none" stroke="rgb(0,0,0)" stroke-width="0.354" opacity="1" d="M 17.678119897842407 1254.3046975135803 L 28.62 1254.59 L 28.9 1266.09 L 41.53 1266.37 L 41.25 1277.31 L 33.67 1277.59 L 33.95 1291.34 L 41.53 1291.63 L 41.81 1301.45 L 56.68 1301.17 L 56.96 1291.34 L 64.54 1291.06 L 64.26 1277.31 L 56.68 1277.03 L 56.96 1266.09 L 69.59 1265.81 L 69.87 1254.3 L 80.81 1254.59 L 80.53 1266.09 L 79.13 1266.37 L 79.41 1363.74 L 80.81 1364.02 L 80.53 1374.96 L 69.59 1374.68 L 69.31 1363.74 L 56.68 1363.46 L 56.96 1352.52 L 64.54 1352.24 L 64.26 1338.49 L 56.68 1338.21 L 56.4 1328.38 L 41.53 1328.67 L 41.25 1338.49 L 33.67 1338.77 L 33.95 1352.52 L 41.53 1352.8 L 41.25 1363.74 L 28.62 1364.02 L 28.34 1374.96 L 17.4 1374.68 L 17.68 1363.74 L 19.08 1363.46 L 18.8 1292.47 L 0.0 1292.19 L 0.28 1281.24 L 19.08 1280.96 L 18.8 1266.09 L 17.4 1265.81 L 17.68 1254.3 Z" /><path fill="none" stroke="rgb(0,0,0)" stroke-width="0.354" opacity="1" d="M 1043.009073972702 1261.600429534912 L 1063.49 1261.88 L 1063.77 1272.82 L 1076.4 1273.11 L 1076.12 1284.05 L 1068.54 1284.33 L 1068.82 1298.64 L 1076.4 1298.92 L 1076.68 1308.18 L 1090.99 1307.9 L 1091.27 1298.64 L 1098.85 1298.36 L 1098.57 1284.05 L 1090.99 1283.77 L 1091.27 1272.82 L 1104.46 1272.54 L 1104.74 1261.6 L 1124.67 1261.88 L 1124.38 1428.28 L 1119.05 1428.56 L 1118.49 1434.73 Q 1117.94 1440.63 1115.12 1444.27 L 1111.2 1450.45 L 1106.99 1455.22 Q 1102.34 1459.55 1095.48 1461.67 L 1090.15 1463.07 L 1086.22 1463.64 L 1079.49 1463.64 L 1073.88 1462.51 L 1065.18 1458.3 Q 1059.07 1454.88 1055.08 1449.33 L 1052.27 1443.71 L 1051.15 1442.03 L 1049.74 1437.26 L 1048.9 1433.05 L 1048.06 1428.28 L 1042.73 1428.0 L 1043.01 1261.6 Z" /><path fill="none" stroke="rgb(0,0,0)" stroke-width="0.354" opacity="1" d="M 1154.12868475914 1261.600429534912 L 1227.37 1261.88 L 1227.09 1536.59 L 1153.85 1536.31 L 1153.57 1527.05 L 1142.62 1526.77 L 1142.9 1515.83 L 1153.85 1515.55 L 1154.13 1502.92 L 1165.07 1503.2 L 1165.35 1510.78 L 1179.66 1510.5 L 1179.94 1502.92 L 1189.2 1502.64 L 1188.92 1487.77 L 1179.66 1487.49 L 1179.38 1479.91 L 1165.07 1480.19 L 1164.79 1487.77 L 1153.85 1487.49 L 1153.57 1474.86 L 1142.62 1474.58 L 1142.9 1463.64 L 1153.85 1463.36 L 1154.13 1454.1 L 1195.94 1453.81 L 1195.66 1373.28 L 1185.28 1373.0 L 1185.0 1351.96 L 1163.95 1352.24 L 1163.67 1373.28 L 1153.85 1373.0 L 1153.57 1327.26 L 1142.62 1326.98 L 1142.9 1316.04 L 1153.85 1315.76 L 1154.13 1303.13 L 1165.07 1303.41 L 1165.35 1310.99 L 1179.66 1310.71 L 1179.94 1303.13 L 1189.2 1302.85 L 1188.92 1287.98 L 1179.66 1287.7 L 1179.38 1280.12 L 1165.07 1280.4 L 1164.79 1287.98 L 1153.85 1287.7 L 1153.57 1275.07 L 1142.62 1274.79 L 1142.9 1263.85 L 1153.85 1263.56 L 1154.13 1261.6 Z" /><path fill="none" stroke="rgb(0,0,0)" stroke-width="0.354" opacity="1" d="M 640.6213924884796 1267.2125310897827 L 667.28 1267.49 L 666.72 1273.67 L 666.16 1277.03 L 665.31 1279.0 L 640.62 1283.49 L 640.62 1267.21 Z" /><path fill="none" stroke="rgb(0,0,0)" stroke-width="0.354" opacity="1" d="M 618.7341964244843 1325.578387260437 Q 623.12 1325.97 625.19 1328.67 L 625.75 1330.35 L 626.31 1334.84 L 622.66 1339.61 L 619.86 1340.73 L 617.05 1340.17 Q 613.61 1339.4 612.28 1336.52 L 611.72 1331.47 L 614.24 1327.26 L 618.73 1325.58 Z" /><path fill="none" stroke="rgb(0,0,0)" stroke-width="0.354" opacity="1" d="M 616.489355802536 1356.4449458122253 Q 623.29 1355.53 625.19 1359.53 Q 626.87 1361.22 626.31 1365.14 L 624.91 1368.23 Q 622.77 1370.86 618.17 1371.04 L 613.4 1368.51 Q 611.16 1366.55 611.72 1361.78 Q 612.49 1358.34 615.37 1357.01 L 616.49 1356.44 Z" /><path fill="none" stroke="rgb(0,0,0)" stroke-width="0.354" opacity="1" d="M 552.5113980770111 1360.9346270561218 L 564.02 1361.22 L 563.74 1373.84 L 552.23 1373.56 L 552.51 1360.93 Z" /><path fill="none" stroke="rgb(0,0,0)" stroke-width="0.354" opacity="1" d="M 557.5622894763947 1386.7502942085266 L 559.25 1387.31 Q 562.54 1387.66 564.02 1389.84 L 565.7 1394.33 L 565.14 1396.01 L 564.58 1397.69 L 562.61 1400.22 L 559.81 1401.34 L 557.0 1401.9 Q 553.37 1401.04 551.67 1398.26 Q 550.23 1396.61 550.55 1393.2 Q 551.41 1389.58 554.2 1387.87 L 557.56 1386.75 Z" /><path fill="none" stroke="rgb(0,0,0)" stroke-width="0.354" opacity="1" d="M 512.1042668819427 1389.556344985962 Q 517.96 1388.75 519.68 1392.08 Q 521.83 1393.86 521.36 1398.26 L 518.84 1402.46 L 513.79 1404.71 Q 509.65 1404.08 507.9 1401.06 Q 506.12 1399.19 506.77 1394.89 L 510.42 1390.12 L 512.1 1389.56 Z" /><path fill="none" stroke="rgb(0,0,0)" stroke-width="0.354" opacity="1" d="M 552.5113980770111 1413.1271715164185 L 564.02 1413.41 L 563.74 1426.04 L 552.23 1425.75 L 552.51 1413.13 Z" /><path fill="none" stroke="rgb(0,0,0)" stroke-width="0.354" opacity="1" d="M 1081.7325747013092 1420.4229035377502 Q 1088.2 1419.85 1090.43 1423.51 Q 1092.4 1425.75 1091.55 1430.81 L 1088.47 1435.01 Q 1086.22 1436.98 1081.17 1436.14 L 1078.08 1434.17 Q 1075.13 1432.08 1075.84 1426.32 L 1079.49 1421.55 L 1081.73 1420.42 Z" /><path fill="none" stroke="rgb(0,0,0)" stroke-width="0.354" opacity="1" d="M 324.6600749492645 1453.5343027114868 Q 327.75 1452.69 328.59 1454.1 L 332.8 1457.18 L 333.92 1461.11 L 333.36 1462.79 L 331.39 1466.44 Q 329.43 1468.97 324.1 1468.13 L 319.89 1465.04 L 319.33 1463.36 L 318.77 1459.43 L 322.98 1454.1 L 324.66 1453.53 Z" /><path fill="none" stroke="rgb(0,0,0)" stroke-width="0.354" opacity="1" d="M 765.210047006607 1473.737868309021 Q 770.27 1473.44 772.23 1476.26 Q 774.54 1477.88 773.91 1482.44 Q 773.21 1485.66 770.82 1487.21 Q 768.95 1488.98 764.65 1488.33 L 759.88 1484.68 L 759.32 1479.07 L 762.4 1474.86 L 765.21 1473.74 Z" /><path fill="none" stroke="rgb(0,0,0)" stroke-width="0.354" opacity="1" d="M 362.82236552238464 1475.4214987754822 L 477.59 1475.7 L 477.31 1486.65 L 362.54 1486.37 L 362.82 1475.42 Z" /><path fill="none" stroke="rgb(0,0,0)" stroke-width="0.354" opacity="1" d="M 725.9253361225128 1475.4214987754822 L 745.85 1475.7 L 745.57 1486.65 L 725.64 1486.37 L 725.93 1475.42 Z" /><path fill="none" stroke="rgb(0,0,0)" stroke-width="0.354" opacity="1" d="M 787.0972430706024 1475.4214987754822 L 807.58 1475.7 L 807.3 1486.65 L 786.82 1486.37 L 787.1 1475.42 Z" /><path fill="none" stroke="rgb(0,0,0)" stroke-width="0.354" opacity="1" d="M 737.149539232254 1510.777738571167 L 780.92 1510.78 L 792.15 1510.78 L 796.36 1511.06 L 799.16 1511.62 L 812.35 1514.15 L 842.66 1519.76 L 848.55 1521.16 L 853.32 1522.56 L 862.02 1526.21 L 895.41 1539.4 L 905.51 1544.45 L 911.97 1548.66 L 936.66 1564.93 L 944.24 1569.7 Q 952.09 1574.48 957.42 1581.77 L 987.17 1611.52 L 1008.78 1645.47 L 1013.55 1653.61 L 1016.07 1657.81 L 1018.6 1665.39 L 1028.98 1693.73 L 1033.75 1708.6 L 1034.03 1712.81 L 1034.87 1718.14 L 1036.56 1734.42 L 1039.36 1757.99 L 1038.8 1760.8 L 1037.96 1767.81 L 1034.87 1794.47 L 1033.75 1806.25 L 1029.82 1819.16 L 1019.72 1846.66 L 1016.91 1854.52 L 1013.55 1861.81 L 1007.37 1870.79 L 993.06 1893.52 Q 987.29 1905.15 977.35 1912.6 L 948.73 1941.79 L 915.05 1963.67 L 906.07 1969.85 L 899.06 1973.5 L 886.71 1978.55 L 860.34 1989.21 L 853.32 1992.3 L 840.41 1995.1 L 808.42 2001.28 L 798.04 2003.24 L 791.59 2004.08 L 780.92 2004.08 L 738.27 2004.08 L 698.99 1996.22 L 687.2 1993.98 Q 682.39 1993.74 679.34 1991.73 L 670.93 1988.37 L 662.23 1984.16 L 647.64 1975.18 L 599.93 1940.95 L 575.24 1913.45 L 564.3 1900.26 L 558.12 1889.59 L 544.09 1864.9 Q 539.21 1858.84 537.36 1849.75 L 528.94 1823.93 L 525.57 1813.27 Q 523.64 1809.87 523.61 1804.57 L 522.49 1793.91 L 518.56 1756.31 L 519.12 1753.5 L 519.68 1747.89 L 522.49 1720.95 L 523.61 1708.6 L 525.01 1702.71 L 527.82 1694.29 L 537.08 1665.95 L 539.32 1659.22 Q 539.46 1655.99 541.29 1654.45 L 544.65 1648.84 L 559.53 1623.3 Q 565.08 1610.34 574.96 1601.69 L 601.9 1571.95 L 648.48 1538.84 L 661.67 1530.7 Q 664.33 1528.03 668.68 1527.05 L 678.22 1523.12 L 684.68 1521.16 L 695.9 1518.92 L 737.15 1510.78 Z" /><path fill="none" stroke="rgb(0,0,0)" stroke-width="0.354" opacity="1" d="M 697.3036181926727 1532.1037244796753 L 836.2 1532.38 L 835.92 1543.33 L 772.23 1543.61 L 771.94 1554.55 L 761.0 1554.27 L 760.72 1543.33 L 697.02 1543.05 L 697.3 1532.1 Z" /><path fill="none" stroke="rgb(0,0,0)" stroke-width="0.354" opacity="1" d="M 0.2806050777435303 1537.715826034546 L 11.79 1538.0 L 12.07 1548.94 L 24.69 1549.22 L 24.41 1560.16 L 16.84 1560.44 L 17.12 1574.76 L 24.69 1575.04 L 24.97 1584.3 L 39.85 1584.02 L 40.13 1574.76 L 47.14 1574.48 L 46.86 1560.16 L 39.85 1559.88 L 40.13 1548.94 L 52.75 1548.66 L 53.03 1537.72 L 63.98 1538.0 L 63.7 1548.94 L 62.29 1549.22 L 62.57 1564.09 L 80.81 1564.37 L 80.53 1575.88 L 62.29 1576.16 L 62.57 1647.15 L 63.98 1647.43 L 63.7 1658.38 L 52.75 1658.1 L 52.47 1647.15 L 39.85 1646.87 L 40.13 1635.93 L 47.14 1635.65 L 46.86 1621.9 L 39.85 1621.62 L 39.57 1611.8 L 24.69 1612.08 L 24.41 1621.9 L 16.84 1622.18 L 17.12 1635.93 L 24.69 1636.21 L 24.41 1647.15 L 11.79 1647.43 L 11.5 1658.38 L 0.0 1658.1 L 0.28 1647.15 L 2.24 1646.87 L 1.96 1548.94 L 0.0 1548.66 L 0.28 1537.72 Z" /><path fill="none" stroke="rgb(0,0,0)" stroke-width="0.354" opacity="1" d="M 0.2806050777435303 1548.940029144287 L 2.24 1549.22 L 1.96 1647.15 L 0.0 1646.87 L 0.28 1548.94 Z" /><path fill="none" stroke="rgb(0,0,0)" stroke-width="0.354" opacity="1" d="M 764.64883685112 1566.337543964386 Q 768.16 1565.36 769.14 1566.9 L 772.79 1569.42 Q 774.31 1571.27 773.91 1575.04 L 771.38 1579.25 Q 769.61 1581.4 765.21 1580.93 Q 761.98 1580.23 760.44 1577.84 Q 758.66 1575.97 759.32 1571.67 L 762.97 1566.9 L 764.65 1566.34 Z" /><path fill="none" stroke="rgb(0,0,0)" stroke-width="0.354" opacity="1" d="M 849.9527804851532 1576.439326763153 L 871.0 1576.72 L 870.72 1608.43 L 849.67 1608.15 L 849.95 1576.44 Z" /><path fill="none" stroke="rgb(0,0,0)" stroke-width="0.354" opacity="1" d="M 899.3392741680145 1592.7144212722778 L 910.28 1592.99 L 910.0 1605.62 L 899.06 1605.34 L 899.34 1592.71 Z" /><path fill="none" stroke="rgb(0,0,0)" stroke-width="0.354" opacity="1" d="M 761.2815759181976 1593.836841583252 L 772.23 1594.12 L 771.94 1607.31 L 761.0 1607.03 L 761.28 1593.84 Z" /><path fill="none" stroke="rgb(0,0,0)" stroke-width="0.354" opacity="1" d="M 902.1453249454498 1617.4076681137085 L 906.07 1617.41 L 907.76 1617.97 L 910.28 1619.93 Q 912.13 1621.74 911.97 1625.55 L 909.44 1630.32 L 905.79 1631.72 L 903.27 1632.0 Q 900.04 1631.3 898.5 1628.91 Q 896.63 1626.85 897.38 1622.18 L 898.78 1619.65 L 902.15 1617.41 Z" /><path fill="none" stroke="rgb(0,0,0)" stroke-width="0.354" opacity="1" d="M 975.6638553142548 1631.437922000885 L 986.61 1631.72 L 986.33 1642.66 L 975.38 1642.38 L 975.66 1631.44 Z" /><path fill="none" stroke="rgb(0,0,0)" stroke-width="0.354" opacity="1" d="M 899.3392741680145 1644.9069657325745 L 910.28 1645.19 L 910.0 1658.38 L 899.06 1658.1 L 899.34 1644.91 Z" /><path fill="none" stroke="rgb(0,0,0)" stroke-width="0.354" opacity="1" d="M 979.0311162471771 1656.1311688423157 L 982.4 1656.13 L 984.08 1656.69 L 987.17 1659.22 Q 988.95 1661.09 988.29 1665.39 L 985.2 1669.6 Q 983.52 1671.28 979.59 1670.72 Q 976.37 1670.02 974.82 1667.64 Q 973.04 1665.77 973.7 1661.46 L 977.35 1656.69 L 979.03 1656.13 Z" /><path fill="none" stroke="rgb(0,0,0)" stroke-width="0.354" opacity="1" d="M 17.678119897842407 1679.1407852172852 L 28.62 1679.42 L 28.9 1690.93 L 41.53 1691.21 L 41.25 1702.15 L 33.67 1702.43 L 33.95 1716.18 L 41.53 1716.46 L 41.81 1726.28 L 56.68 1726.0 L 56.96 1716.18 L 64.54 1715.9 L 64.26 1702.15 L 56.68 1701.87 L 56.96 1690.93 L 69.59 1690.65 L 69.87 1679.14 L 80.81 1679.42 L 80.53 1690.93 L 79.13 1691.21 L 79.41 1788.58 L 80.81 1788.86 L 80.53 1800.36 L 69.59 1800.08 L 69.31 1788.58 L 56.68 1788.3 L 56.96 1777.35 L 64.54 1777.07 L 64.26 1763.32 L 56.68 1763.04 L 56.4 1753.22 L 41.53 1753.5 L 41.25 1763.32 L 33.67 1763.6 L 33.95 1777.35 L 41.53 1777.63 L 41.25 1788.58 L 28.62 1788.86 L 28.34 1800.36 L 17.4 1800.08 L 17.68 1788.58 L 19.08 1788.3 L 18.8 1717.3 L 0.0 1717.02 L 0.28 1706.08 L 19.08 1705.8 L 18.8 1690.93 L 17.4 1690.65 L 17.68 1679.14 Z" /><path fill="none" stroke="rgb(0,0,0)" stroke-width="0.354" opacity="1" d="M 975.6638553142548 1683.6304664611816 L 986.61 1683.91 L 986.33 1695.42 L 975.38 1695.14 L 975.66 1683.63 Z" /><path fill="none" stroke="rgb(0,0,0)" stroke-width="0.354" opacity="1" d="M 551.950187921524 1749.8532648086548 Q 556.58 1749.71 558.4 1752.38 L 559.53 1754.62 L 560.09 1758.55 Q 559.39 1761.78 557.0 1763.32 Q 554.94 1765.19 550.27 1764.44 L 546.06 1760.8 L 545.5 1755.18 L 548.02 1751.54 L 551.95 1749.85 Z" /><path fill="none" stroke="rgb(0,0,0)" stroke-width="0.354" opacity="1" d="M 1004.2855732440948 1749.8532648086548 Q 1009.43 1749.76 1011.3 1752.94 Q 1013.08 1754.81 1012.42 1759.11 Q 1011.65 1762.55 1008.78 1763.88 Q 1007.0 1765.19 1003.16 1764.44 L 998.95 1761.36 Q 997.43 1759.51 997.83 1755.75 L 999.8 1752.1 L 1004.29 1749.85 Z" /><path fill="none" stroke="rgb(0,0,0)" stroke-width="0.354" opacity="1" d="M 521.0836293697357 1751.536895275116 L 532.03 1751.82 L 531.75 1762.76 L 520.8 1762.48 L 521.08 1751.54 Z" /><path fill="none" stroke="rgb(0,0,0)" stroke-width="0.354" opacity="1" d="M 573.2761738300323 1751.536895275116 L 584.78 1751.82 L 584.5 1762.76 L 573.0 1762.48 L 573.28 1751.54 Z" /><path fill="none" stroke="rgb(0,0,0)" stroke-width="0.354" opacity="1" d="M 973.4190146923065 1751.536895275116 L 984.92 1751.82 L 984.64 1762.76 L 973.14 1762.48 L 973.42 1751.54 Z" /><path fill="none" stroke="rgb(0,0,0)" stroke-width="0.354" opacity="1" d="M 1026.1727693080902 1751.536895275116 L 1037.12 1751.82 L 1036.84 1762.76 L 1025.89 1762.48 L 1026.17 1751.54 Z" /><path fill="none" stroke="rgb(0,0,0)" stroke-width="0.354" opacity="1" d="M 268.5390594005585 1757.1489968299866 L 290.43 1757.15 Q 296.11 1756.24 299.41 1757.71 L 305.86 1759.11 L 319.05 1761.64 Q 320.69 1763.08 324.1 1762.76 L 330.27 1765.57 L 342.62 1771.18 Q 352.85 1774.14 359.46 1780.72 L 368.43 1787.45 Q 374.73 1790.7 378.82 1796.15 L 388.64 1807.1 Q 393.46 1811.25 396.21 1817.48 L 403.51 1829.83 L 407.16 1836.28 L 409.96 1844.14 L 415.01 1859.85 Q 416.94 1863.25 416.98 1868.55 L 418.1 1878.65 L 418.66 1883.7 Q 418.1 1887.07 420.35 1887.63 L 425.12 1892.4 L 425.96 1892.68 L 426.24 1902.5 L 437.18 1902.78 L 436.9 1913.73 L 425.96 1914.01 L 425.68 1926.63 L 414.73 1926.35 L 414.45 1918.78 L 400.14 1919.06 L 399.86 1926.63 L 390.6 1926.92 L 390.88 1941.79 L 400.14 1942.07 L 400.42 1949.64 L 414.73 1949.36 L 415.01 1941.79 L 425.96 1942.07 L 426.24 1954.69 L 437.18 1954.98 L 436.9 1965.92 L 425.96 1966.2 L 425.68 1975.46 L 387.24 1979.67 L 372.92 1995.66 L 333.36 2027.93 L 360.86 2050.94 Q 370.44 2057.64 378.26 2066.1 L 387.52 2076.48 L 414.17 2079.56 L 422.31 2080.41 Q 424.98 2079.99 425.96 2081.25 L 426.24 2090.51 L 437.18 2090.79 L 436.9 2101.73 L 425.96 2102.01 L 425.68 2114.64 L 414.73 2114.36 L 414.45 2106.78 L 400.14 2107.06 L 399.86 2114.64 L 390.6 2114.92 L 390.88 2129.79 L 400.14 2130.07 L 400.42 2137.09 L 414.73 2136.81 L 415.01 2129.79 L 425.96 2130.07 L 426.24 2142.7 L 437.18 2142.98 L 436.9 2153.92 L 425.96 2154.21 L 425.96 2160.94 Q 426.52 2164.03 424.56 2164.59 L 419.5 2169.64 L 418.66 2169.92 L 417.26 2184.79 Q 417.22 2193.45 414.17 2199.1 L 409.12 2214.25 L 407.44 2219.87 L 404.07 2224.92 L 396.49 2238.11 Q 393.55 2245.26 387.8 2249.61 L 373.49 2265.61 L 357.21 2277.39 L 353.0 2280.48 L 345.42 2284.13 L 333.08 2289.74 L 328.03 2291.98 L 321.01 2293.95 L 306.7 2297.03 L 301.65 2298.16 Q 298.14 2299.7 292.11 2298.72 L 266.86 2298.72 L 249.46 2294.79 L 243.85 2293.67 Q 238.53 2292.81 234.87 2290.3 L 222.52 2284.69 Q 216.01 2283.06 211.86 2279.07 L 190.25 2263.08 L 176.22 2247.37 Q 172.05 2243.68 169.77 2238.11 L 162.75 2226.04 Q 158.17 2220.24 156.3 2211.73 L 152.09 2198.54 L 149.84 2190.68 L 149.0 2183.67 L 147.6 2170.48 L 147.04 2159.26 L 147.6 2157.57 L 147.88 2153.92 L 149.0 2143.26 L 149.84 2136.25 L 151.53 2130.07 L 158.82 2107.62 L 171.17 2086.3 L 209.33 2027.93 L 171.17 1970.13 L 161.63 1953.29 Q 157.93 1948.85 156.58 1942.07 L 152.37 1928.88 L 149.84 1920.18 L 149.0 1913.17 L 147.6 1899.98 L 147.04 1888.75 L 147.6 1887.07 L 147.88 1883.42 L 149.0 1872.76 L 149.84 1865.74 L 151.53 1859.57 L 156.86 1843.01 Q 158.12 1836.7 161.63 1832.63 L 167.8 1821.41 L 170.61 1816.36 Q 173.89 1810.38 179.03 1806.25 L 192.78 1790.82 L 209.89 1778.76 L 216.07 1774.27 L 221.96 1771.74 L 236.27 1765.29 L 243.28 1762.76 L 247.49 1761.92 L 268.54 1757.15 Z" /><path fill="none" stroke="rgb(0,0,0)" stroke-width="0.354" opacity="1" d="M 270.7839000225067 1792.5052366256714 L 289.3 1792.51 L 295.76 1792.79 L 301.37 1793.91 L 314.84 1796.71 Q 318.7 1796.78 320.73 1798.68 L 331.96 1803.73 L 338.97 1806.82 L 343.74 1809.9 L 353.28 1816.64 L 363.1 1825.9 Q 369.39 1831.39 373.77 1838.81 L 380.22 1849.75 Q 383.77 1853.49 384.99 1859.57 L 388.92 1871.36 L 390.6 1876.97 L 391.44 1883.98 L 392.29 1892.12 L 392.85 1901.66 L 392.29 1903.34 L 392.01 1906.99 L 391.72 1912.32 Q 390.18 1913.31 391.16 1916.81 L 388.92 1925.23 L 384.99 1937.02 L 383.31 1942.07 L 380.22 1946.84 L 373.77 1957.78 L 367.59 1965.64 L 355.53 1978.27 L 343.18 1986.68 Q 339.84 1990.08 334.76 1991.73 L 323.82 1996.51 L 317.93 1999.03 L 313.44 2000.15 L 299.41 2002.96 L 295.2 2003.8 L 289.3 2004.08 L 271.35 2004.08 L 253.39 2000.15 L 248.9 1999.03 L 242.72 1996.79 L 234.31 1992.86 L 229.25 1990.61 L 225.89 1988.37 L 214.66 1980.51 Q 209.75 1978.13 206.53 1974.06 L 196.7 1963.11 Q 192.88 1959.92 190.81 1954.98 L 185.48 1945.72 Q 182.4 1942.06 181.27 1936.46 L 177.34 1924.67 Q 175.24 1921.44 175.38 1915.97 L 173.98 1903.34 L 173.41 1896.05 L 173.98 1893.24 L 174.82 1885.67 L 175.1 1880.33 L 175.66 1878.09 L 176.22 1874.72 L 177.62 1871.07 L 181.83 1858.45 L 183.52 1853.96 L 186.88 1848.35 L 192.5 1839.37 L 195.86 1834.32 L 199.23 1830.39 L 210.73 1818.32 L 225.05 1808.5 L 230.38 1805.41 L 236.55 1802.61 L 251.7 1796.43 L 257.88 1795.31 L 270.78 1792.51 Z" /><path fill="none" stroke="rgb(0,0,0)" stroke-width="0.354" opacity="1" d="M 975.6638553142548 1819.4433240890503 L 986.61 1819.72 L 986.33 1830.67 L 975.38 1830.39 L 975.66 1819.44 Z" /><path fill="none" stroke="rgb(0,0,0)" stroke-width="0.354" opacity="1" d="M 979.0311162471771 1844.136570930481 Q 983.24 1843.29 984.92 1844.98 L 987.73 1847.78 L 988.29 1852.84 L 985.77 1857.04 Q 983.96 1858.89 980.15 1858.73 Q 976.44 1858.24 974.82 1855.64 Q 973.22 1853.6 973.7 1849.47 L 977.35 1844.7 L 979.03 1844.14 Z" /><path fill="none" stroke="rgb(0,0,0)" stroke-width="0.354" opacity="1" d="M 899.3392741680145 1856.4831943511963 L 910.28 1856.76 L 910.0 1869.39 L 899.06 1869.11 L 899.34 1856.48 Z" /><path fill="none" stroke="rgb(0,0,0)" stroke-width="0.354" opacity="1" d="M 975.6638553142548 1871.635868549347 L 986.61 1871.92 L 986.33 1882.86 L 975.38 1882.58 L 975.66 1871.64 Z" /><path fill="none" stroke="rgb(0,0,0)" stroke-width="0.354" opacity="1" d="M 902.1453249454498 1882.8600716590881 Q 908.61 1882.29 910.84 1885.95 L 911.41 1887.63 L 911.97 1891.56 L 907.76 1896.89 L 902.71 1897.45 L 897.94 1893.8 Q 896.53 1891.84 897.38 1887.63 L 899.34 1884.54 L 902.15 1882.86 Z" /><path fill="none" stroke="rgb(0,0,0)" stroke-width="0.354" opacity="1" d="M 899.3392741680145 1908.675738811493 L 910.28 1908.96 L 910.0 1922.14 L 900.18 1922.43 L 899.9 1932.25 L 888.96 1931.97 L 889.24 1919.34 L 899.06 1919.06 L 899.34 1908.68 Z" /><path fill="none" stroke="rgb(0,0,0)" stroke-width="0.354" opacity="1" d="M 666.9982697963715 1917.655101299286 Q 672.08 1917.07 674.01 1919.62 Q 676.56 1921.56 676.26 1926.35 L 673.73 1930.56 Q 671.77 1932.81 667.0 1932.25 L 662.79 1929.16 Q 660.77 1927.53 661.67 1922.99 L 664.75 1918.78 L 667.0 1917.66 Z" /><path fill="none" stroke="rgb(0,0,0)" stroke-width="0.354" opacity="1" d="M 866.789085149765 1917.655101299286 Q 871.24 1917.13 873.24 1919.06 Q 875.69 1921.1 876.05 1925.23 L 873.52 1930.56 Q 871.56 1932.81 866.79 1932.25 Q 863.35 1931.47 862.02 1928.6 L 860.9 1924.11 Q 861.76 1920.48 864.54 1918.78 L 866.79 1917.66 Z" /><path fill="none" stroke="rgb(0,0,0)" stroke-width="0.354" opacity="1" d="M 637.2541315555573 1919.338731765747 L 648.2 1919.62 L 647.92 1932.25 L 636.97 1931.97 L 637.25 1919.34 Z" /><path fill="none" stroke="rgb(0,0,0)" stroke-width="0.354" opacity="1" d="M 689.4466760158539 1919.338731765747 L 700.95 1919.62 L 700.67 1932.25 L 689.17 1931.97 L 689.45 1919.34 Z" /><path fill="none" stroke="rgb(0,0,0)" stroke-width="0.354" opacity="1" d="M 837.0449469089508 1919.338731765747 L 847.99 1919.62 L 847.71 1932.25 L 836.76 1931.97 L 837.04 1919.34 Z" /><path fill="none" stroke="rgb(0,0,0)" stroke-width="0.354" opacity="1" d="M 690.0078861713409 1970.9700660705566 L 843.5 1971.25 L 843.22 1982.76 L 689.73 1982.47 L 690.01 1970.97 Z" /><path fill="none" stroke="rgb(0,0,0)" stroke-width="0.354" opacity="1" d="M 270.7839000225067 2052.3455386161804 L 289.3 2052.35 L 295.76 2052.63 L 301.37 2053.75 L 313.44 2056.27 Q 318.08 2056.4 320.73 2058.52 L 331.96 2063.57 L 338.97 2066.66 L 343.74 2069.74 L 353.28 2076.48 L 363.1 2085.74 L 368.43 2091.63 Q 372.39 2094.97 374.61 2100.05 L 380.22 2109.59 Q 383.77 2113.33 384.99 2119.41 L 388.92 2131.2 L 390.6 2136.81 L 391.44 2143.82 L 392.29 2151.4 L 392.85 2161.5 L 392.29 2164.31 L 391.44 2171.88 L 390.6 2178.9 L 388.92 2185.07 L 384.99 2196.86 L 383.31 2201.91 L 380.22 2206.68 L 373.77 2217.62 L 367.59 2225.48 L 355.53 2238.11 L 343.18 2246.52 Q 339.84 2249.92 334.76 2251.58 L 323.82 2256.35 L 317.93 2258.87 L 314.28 2259.71 L 299.41 2262.8 L 295.2 2263.64 L 289.3 2263.92 L 271.35 2263.92 L 254.79 2260.27 L 248.05 2258.59 L 244.13 2256.91 L 232.34 2251.86 Q 228.27 2250.87 225.89 2248.21 L 213.26 2239.51 L 207.09 2234.46 L 196.7 2222.95 L 191.65 2216.22 L 186.32 2206.96 Q 182.65 2202.78 181.27 2196.3 L 177.34 2184.51 Q 175.24 2181.28 175.38 2175.81 L 173.98 2163.18 L 173.41 2155.89 L 173.98 2153.08 L 174.82 2145.51 L 175.1 2140.18 L 175.66 2137.93 L 176.22 2134.56 L 177.34 2130.63 L 181.55 2119.13 L 183.52 2113.8 L 186.88 2108.19 L 192.5 2099.21 L 195.86 2094.16 L 199.23 2090.23 L 210.73 2078.16 L 225.05 2068.34 L 230.38 2065.25 L 236.55 2062.45 L 246.37 2058.24 L 254.51 2055.71 L 270.78 2052.35 Z" /></svg>